<svg width="115" height="64" viewBox="0 0 115 64" fill="none" xmlns="http://www.w3.org/2000/svg">
<path d="M49.8426 18.1629C49.5436 18.4662 49.6816 19.5862 50.0496 19.7262C50.5326 19.9129 72.8656 19.9129 73.5556 19.7262C73.9926 19.6095 74.0846 19.4462 74.0156 18.8395L73.9466 18.1162L61.9636 18.0462C55.3856 18.0229 49.9116 18.0695 49.8426 18.1629Z" fill="white"/>
<path fill-rule="evenodd" clip-rule="evenodd" d="M55.5242 26.6333C53.8222 23.67 52.4882 21.1733 52.5572 21.0333C52.6492 20.8933 53.8222 20.8 55.4092 20.8H58.1002L59.9172 23.8333C60.9062 25.49 61.7802 26.8667 61.8492 26.8667C61.9182 26.8667 62.7922 25.49 63.8042 23.8333L65.5982 20.8H68.2892C69.7842 20.8 71.0722 20.87 71.1412 20.94C71.3252 21.1267 71.3022 21.1967 67.9442 27.0067C66.3802 29.7133 65.0922 32.0467 65.0922 32.21C65.0922 32.35 66.4952 34.8233 68.1972 37.6467C69.8992 40.4934 71.2332 42.8967 71.1182 42.99C70.8882 43.2467 70.5432 43.2467 67.7142 43.2234L65.1612 43.2L64.0572 41.2867C63.4362 40.2134 62.7002 38.9534 62.3782 38.44L61.8262 37.53L60.2162 40.3067C59.3422 41.8467 58.5832 43.13 58.5372 43.1767C58.3992 43.2934 52.8562 43.2 52.6262 43.06C52.3732 42.8967 52.6492 42.3834 55.8922 37.04C57.4102 34.4967 58.6522 32.3267 58.6522 32.21C58.6522 32.0933 57.2492 29.5733 55.5242 26.6333ZM61.8716 34.5666C63.2689 34.5666 64.4016 33.4174 64.4016 31.9999C64.4016 30.5824 63.2689 29.4332 61.8716 29.4332C60.4743 29.4332 59.3416 30.5824 59.3416 31.9999C59.3416 33.4174 60.4743 34.5666 61.8716 34.5666Z" fill="white"/>
<path d="M28.6836 22.8997C27.5796 23.203 26.2226 23.903 25.7166 24.463C24.4056 25.933 24.0146 28.7097 24.8656 30.5997C25.5096 32.0697 26.2456 32.7697 28.6376 34.263C31.4666 36.0363 31.9726 36.5263 31.9726 37.6463C31.9726 38.3697 31.8576 38.603 31.3976 38.813C30.5696 39.1863 29.8566 38.743 29.1436 37.3897C28.3156 35.873 27.5796 35.2197 26.5906 35.1963C23.7386 35.1263 23.3016 38.6497 25.9006 40.843C28.5916 43.083 34.5256 42.593 36.2506 39.9563C37.1016 38.6497 37.4236 36.783 37.0556 35.173C36.6186 33.1663 35.7216 32.1863 32.5706 30.2497C29.7186 28.4997 29.0746 27.823 29.3506 26.773C29.7186 25.2097 30.9606 25.4197 32.0876 27.2163C33.2376 29.013 34.1806 29.3863 35.6296 28.6163C37.6306 27.5663 36.3656 24.253 33.5826 23.2497C32.2946 22.783 29.8336 22.6197 28.6836 22.8997Z" fill="white"/>
<path d="M43.0568 23.3433C42.7808 23.5066 36.8238 40.8433 36.8008 41.5199C36.8008 41.7533 37.2838 41.7999 38.8248 41.7533L40.8258 41.6833L41.1708 40.3299L41.4928 38.9766L43.9078 39.0466L46.3228 39.1166L46.6908 40.3999L47.0588 41.6833L49.8648 41.7533C52.0498 41.7999 52.6708 41.7533 52.6708 41.5199C52.6708 41.0066 46.9668 23.8099 46.6678 23.4599C46.3688 23.0866 43.5858 22.9933 43.0568 23.3433ZM44.6898 33.3066C45.0348 34.5899 45.3108 35.7799 45.3108 35.9199C45.3108 36.1066 44.8048 36.1999 43.8388 36.1999H42.3668L43.0798 33.3766C43.4478 31.8366 43.8388 30.6466 43.9308 30.7633C44.0228 30.8566 44.3678 31.9999 44.6898 33.3066Z" fill="white"/>
<path d="M72.2462 23.4365C72.0622 23.6931 71.9932 26.1898 72.0392 32.7231L72.1082 41.6831L77.2372 41.7531L82.3662 41.7998L82.2972 40.0031L82.2282 38.1831L79.8822 38.1131L77.5132 38.0431L77.4672 30.6465L77.3982 23.2498L74.9602 23.1798C73.0972 23.1331 72.4532 23.2031 72.2462 23.4365Z" fill="white"/>
<path d="M83.6532 23.2966C83.5612 23.3666 83.4922 27.5666 83.4922 32.6299V41.8232L86.2062 41.7532L88.8972 41.6832L88.9662 32.6066C89.0122 25.4899 88.9662 23.2966 88.9662 23.2966C88.5982 23.0866 83.8602 23.0632 83.6532 23.2966Z" fill="white"/>
<path d="M90.7818 23.2966C90.6898 23.3666 90.6208 27.5666 90.6208 32.6299V41.8232L93.3348 41.7532L96.0258 41.6832L96.0948 37.9032L96.1408 34.1232L98.1648 34.0532L100.166 33.9832L100.235 32.2799L100.304 30.5999H98.2108H96.1408V28.7332V26.8899L98.6248 26.8199L101.086 26.7499L101.155 25.1399C101.201 23.9966 101.132 23.4599 100.925 23.3432C100.58 23.1099 90.9888 23.0632 90.7818 23.2966Z" fill="white"/>
<path d="M102.628 23.3432C102.421 23.4599 102.352 23.9966 102.398 25.1399L102.467 26.7499L104.123 26.8199L105.802 26.8899L105.848 34.2866L105.917 41.6832L108.631 41.7532L111.322 41.8232V34.3566V26.8899L113.116 26.8199L114.887 26.7499L114.956 25.1399C115.002 23.9966 114.933 23.4599 114.726 23.3432C114.565 23.2266 111.851 23.1332 108.677 23.1332C105.526 23.1332 102.789 23.2266 102.628 23.3432Z" fill="white"/>
<path d="M0.00195312 32.5831V41.7998H9.08695H18.172V32.5831V23.3665H9.08695H0.00195312V32.5831ZM7.93695 27.0298C8.55795 28.0798 9.13295 28.9431 9.20195 28.9431C9.27095 28.9665 9.82295 28.0565 10.467 26.9831L11.594 24.9998H13.503C14.998 24.9998 15.412 25.0698 15.412 25.3265C15.412 25.5131 14.492 27.2165 13.365 29.1531L11.341 32.6298L13.365 36.0598C14.492 37.9498 15.412 39.6531 15.412 39.8398C15.412 40.1198 15.067 40.1665 13.411 40.1198C11.157 40.0498 11.41 40.2365 9.82295 37.4831L9.17895 36.3631L8.09795 38.2065L7.01695 40.0498L5.08495 40.1198C4.02695 40.1665 3.06095 40.0965 2.94595 39.9798C2.85395 39.8865 3.68195 38.2298 4.83195 36.3398C5.95895 34.4498 6.90195 32.7931 6.90195 32.6531C6.90195 32.5365 5.98195 30.8331 4.85495 28.8965C3.72795 26.9598 2.85395 25.2798 2.89995 25.1865C2.96895 25.0698 3.86595 25.0231 4.90095 25.0465L6.78695 25.1165L7.93695 27.0298Z" fill="white"/>
<ellipse cx="9.2018" cy="32.6997" rx="1.61" ry="1.63333" fill="white"/>
<path d="M49.7292 45.1133L49.7982 45.8833H61.8732H73.9482L74.0172 45.1133L74.0862 44.3666H61.8732H49.6602L49.7292 45.1133Z" fill="white"/>
</svg>
