<svg width="112" height="64" viewBox="0 0 112 64" fill="none" xmlns="http://www.w3.org/2000/svg">
<path d="M81.7103 22.1812C81.241 22.3741 81.0703 22.6957 81.0703 23.4674C81.0703 23.939 81.1983 24.2391 81.4756 24.3892C81.7529 24.5178 84.9528 24.6035 90.4139 24.6035C98.3921 24.6035 98.9468 24.5821 99.2668 24.2177C99.7787 23.6603 99.7147 22.76 99.1601 22.3741C98.7548 22.074 97.5602 22.0312 90.3499 22.0526C85.7848 22.0526 81.8809 22.1169 81.7103 22.1812Z" fill="white"/>
<path d="M3.26961 26.34C1.92567 26.8545 0.581738 28.1621 0.261754 29.2768C-0.0582306 30.3057 -0.0795629 36.8438 0.219089 37.8727C0.517741 38.966 1.2857 39.9521 2.24566 40.5094C3.09895 41.0025 3.16295 41.0025 11.9945 41.0668C20.7194 41.1311 20.8901 41.1311 21.3167 40.7023C21.8074 40.2093 21.8927 39.3947 21.5514 38.7302C21.3381 38.3443 21.0181 38.3229 13.1038 38.3229C4.25089 38.3229 3.84558 38.28 3.54693 37.2082C3.3336 36.3936 3.3976 30.1771 3.63226 29.7484C4.03757 28.9767 4.95486 28.8909 13.1465 28.8909C21.0607 28.8909 21.1034 28.8909 21.3594 28.4408C21.658 27.862 21.4874 26.3186 21.0821 26.0828C20.9327 25.9756 17.1143 25.8898 12.5918 25.9113C4.91219 25.9113 4.31489 25.9327 3.26961 26.34Z" fill="white"/>
<path d="M27.591 26.1898C26.247 26.6186 24.9458 27.5189 24.1138 28.6336L23.3672 29.5982V33.8212V38.0441L23.9645 38.8158C25.4791 40.8094 27.2283 41.1738 34.5026 41.0666C39.6864 41.0023 39.8144 40.9809 40.9877 40.4236C41.649 40.1234 42.4809 39.5661 42.8436 39.2017C43.8035 38.1727 43.9955 37.1652 43.9102 33.1781C43.8462 29.1266 43.6329 28.4192 42.1823 27.3688C40.3264 26.0183 39.5797 25.8897 33.756 25.9112C30.0442 25.9112 28.231 25.9969 27.591 26.1898ZM39.4731 29.2767C40.6037 29.834 40.753 30.3485 40.753 33.6282C40.753 36.3078 40.7103 36.6079 40.2837 37.1438C39.4517 38.2156 38.8331 38.3228 33.884 38.3228C28.7003 38.3014 27.8683 38.1942 27.0577 37.251C26.4604 36.6079 26.4604 36.565 26.4604 33.6068C26.4604 30.7772 26.4817 30.6057 26.9723 30.0484C27.8256 29.0409 28.5083 28.9337 33.82 28.9122C38.0865 28.8908 38.8331 28.9337 39.4731 29.2767Z" fill="white"/>
<path d="M51.2026 26.1042C48.7068 26.2972 47.1708 27.1546 46.1042 28.891C45.6776 29.5983 45.6562 29.8985 45.6562 35.2361C45.6562 40.1665 45.6989 40.8739 45.9976 40.981C46.5735 41.1954 48.3441 41.1097 48.6001 40.8524C48.7921 40.6595 48.8561 39.1804 48.8561 35.4933V30.3915L49.4534 29.7484C50.136 28.9553 51.1173 28.698 53.2719 28.6766C55.0425 28.6766 55.4691 28.3979 55.4691 27.2832C55.4691 26.7688 55.3198 26.4472 54.9998 26.2328C54.4878 25.8684 54.1252 25.8684 51.2026 26.1042Z" fill="white"/>
<path d="M83.6953 26.3832C81.8393 27.0477 80.4954 28.0552 80.0048 29.1699C79.6421 29.9416 79.5781 30.5847 79.5781 33.3928C79.5781 35.2149 79.6848 37.0799 79.8128 37.5301C80.0901 38.5376 81.2847 39.9095 82.4367 40.5311C83.2899 40.9813 83.5886 41.0027 90.8202 41.0671C96.004 41.1099 98.4572 41.0671 98.7559 40.8956C99.0972 40.7241 99.2038 40.4454 99.2038 39.7594C99.2038 39.245 99.0972 38.7305 98.9479 38.5804C98.7559 38.3875 96.9213 38.3232 92.0789 38.3018C87.5137 38.3018 85.2099 38.216 84.6979 38.0445C83.8019 37.723 82.9913 36.5869 82.9913 35.6222V34.8934L91.5882 34.8505L100.164 34.7862V31.8709C100.164 29.0198 100.164 28.9555 99.5665 28.1838C99.2252 27.7337 98.5639 27.1763 98.0732 26.9191C96.324 26.0187 95.3 25.8901 90.031 25.8901C85.4018 25.9116 84.9112 25.933 83.6953 26.3832ZM95.8973 29.2342C96.6653 29.5986 97.2839 30.6276 97.2839 31.5493V32.1067H90.1376H82.9913V31.2921C82.9913 30.306 83.4606 29.5986 84.3566 29.1913C85.4018 28.7412 94.9374 28.7626 95.8973 29.2342Z" fill="white"/>
<path d="M60.8062 26.2971C59.9102 26.5757 58.5876 27.326 58.2036 27.7547C57.2863 28.7837 57.1797 29.4911 57.1797 35.086C57.1797 38.0228 57.2437 40.5737 57.3077 40.7666C57.4783 41.1953 59.7182 41.2596 60.1235 40.8523C60.3155 40.6594 60.3795 39.1589 60.3795 35.4075C60.3795 30.2199 60.3795 30.1985 60.8915 29.5983L61.4035 28.9981L67.3765 28.9337L73.3496 28.8694L73.9469 29.4053L74.5655 29.9198L74.6295 35.4504C74.6722 39.459 74.7575 41.0453 74.9495 41.1525C75.3548 41.4097 77.1254 41.3454 77.4027 41.0667C77.5947 40.8738 77.6587 39.2446 77.6587 35.0645C77.6587 28.7837 77.5734 28.2907 76.4641 27.4118C74.9922 26.2542 74.8215 26.2328 67.8458 26.1685C64.262 26.147 61.1048 26.2113 60.8062 26.2971Z" fill="white"/>
<path d="M106.347 26.2972C104.747 26.7044 103.275 27.8191 102.593 29.1482C102.23 29.877 102.188 30.4558 102.188 35.4076C102.188 40.1665 102.23 40.8739 102.529 40.981C103.105 41.1954 104.875 41.1097 105.131 40.8524C105.323 40.6595 105.387 39.1804 105.387 35.5362C105.387 30.0271 105.43 29.8556 106.667 29.2125C106.987 29.041 108.203 28.8481 109.355 28.7623C110.528 28.6766 111.595 28.5265 111.744 28.3979C112.064 28.1407 112.086 27.0903 111.787 26.5115C111.574 26.1471 111.318 26.1042 109.27 26.1257C108.011 26.1471 106.71 26.2114 106.347 26.2972Z" fill="white"/>
</svg>
