<svg width="167" height="64" viewBox="0 0 167 64" fill="none" xmlns="http://www.w3.org/2000/svg">
<g clip-path="url(#clip0_480_16009)">
<path d="M50.5889 44.5239C53.2422 44.5239 53.2422 44.5239 53.2422 44.5239C53.2422 45.7236 53.2422 45.7236 53.2422 45.7236C52.6452 46.1013 52.0923 46.3234 51.1859 46.3234C49.5055 46.3234 48.5106 45.4125 48.5106 44.124C48.5106 42.8353 49.4172 41.9245 51.1638 41.9245C52.203 41.9245 52.8882 42.2356 53.4411 42.7466C53.9274 42.1022 53.9274 42.1022 53.9274 42.1022C53.22 41.4802 52.3355 41.147 51.1416 41.147C48.8866 41.147 47.5156 42.4577 47.5156 44.124C47.5156 45.768 48.9085 47.101 51.1638 47.101C52.4462 47.101 53.3305 46.7455 54.1043 46.1013C54.1043 43.8351 54.1043 43.8351 54.1043 43.8351C50.5889 43.8351 50.5889 43.8351 50.5889 43.8351V44.5239ZM63.1914 43.1465C63.1914 42.191 62.4838 41.3247 61.0247 41.3247C56.6689 41.3247 56.6689 41.3247 56.6689 41.3247C56.6689 46.9455 56.6689 46.9455 56.6689 46.9455C57.5756 46.9455 57.5756 46.9455 57.5756 46.9455C57.5756 44.8793 57.5756 44.8793 57.5756 44.8793C59.8308 44.8793 59.8308 44.8793 59.8308 44.8793C62.2405 46.9455 62.2405 46.9455 62.2405 46.9455C63.5894 46.9455 63.5894 46.9455 63.5894 46.9455C61.0026 44.8349 61.0026 44.8349 61.0026 44.8349C62.5502 44.7905 63.1914 44.0572 63.1914 43.1465ZM57.5756 44.1685C57.5756 42.08 57.5756 42.08 57.5756 42.08C61.0026 42.08 61.0026 42.08 61.0026 42.08C61.7764 42.08 62.2186 42.4799 62.2186 43.1465C62.2186 43.7686 61.7542 44.1685 60.9583 44.1685H57.5756ZM69.0503 41.147C66.8393 41.147 65.4464 42.4577 65.4464 44.124C65.4464 45.7902 66.8393 47.101 69.0503 47.101C71.2834 47.101 72.6984 45.7902 72.6984 44.124C72.6984 42.4577 71.2834 41.147 69.0503 41.147ZM69.0503 46.3234C67.3701 46.3234 66.4192 45.3237 66.4192 44.124C66.4192 42.9021 67.3701 41.9245 69.0503 41.9245C70.7528 41.9245 71.7035 42.9021 71.7035 44.124C71.7035 45.3237 70.7528 46.3234 69.0503 46.3234ZM80.6799 44.4794C80.6799 45.768 79.6407 46.3012 78.2478 46.3012C76.8771 46.3012 75.8379 45.768 75.8379 44.4794C75.8379 41.3247 75.8379 41.3247 75.8379 41.3247C74.9094 41.3247 74.9094 41.3247 74.9094 41.3247C74.9094 44.5904 74.9094 44.5904 74.9094 44.5904C74.9094 46.3012 76.3906 47.101 78.2478 47.101C80.1051 47.101 81.5863 46.3012 81.5863 44.5904C81.5863 41.3247 81.5863 41.3247 81.5863 41.3247C80.6799 41.3247 80.6799 41.3247 80.6799 41.3247V44.4794ZM88.4182 41.3247C84.1069 41.3247 84.1069 41.3247 84.1069 41.3247C84.1069 46.9455 84.1069 46.9455 84.1069 46.9455C85.0133 46.9455 85.0133 46.9455 85.0133 46.9455C85.0133 45.0126 85.0133 45.0126 85.0133 45.0126C88.4403 45.0126 88.4403 45.0126 88.4403 45.0126C89.8994 45.0126 90.607 44.1462 90.607 43.1907C90.607 42.2132 89.8994 41.3247 88.4182 41.3247ZM88.3739 44.2572C85.0133 44.2572 85.0133 44.2572 85.0133 44.2572C85.0133 42.08 85.0133 42.08 85.0133 42.08C88.396 42.08 88.3961 42.08 88.3961 42.08C89.1699 42.08 89.6121 42.5466 89.6121 43.1907C89.6121 43.7905 89.192 44.2572 88.3739 44.2572ZM101.153 41.3247C96.842 41.3247 96.842 41.3247 96.842 41.3247C96.842 46.9455 96.842 46.9455 96.842 46.9455C97.7483 46.9455 97.7483 46.9455 97.7483 46.9455C97.7483 45.0126 97.7483 45.0126 97.7483 45.0126C101.175 45.0126 101.175 45.0126 101.175 45.0126C102.634 45.0126 103.342 44.1462 103.342 43.1907C103.342 42.2132 102.634 41.3247 101.153 41.3247ZM101.109 44.2572C97.7484 44.2572 97.7483 44.2572 97.7483 44.2572C97.7483 42.08 97.7483 42.08 97.7483 42.08C101.131 42.08 101.131 42.08 101.131 42.08C101.905 42.08 102.347 42.5466 102.347 43.1907C102.347 43.7905 101.927 44.2572 101.109 44.2572ZM106.459 41.3247C105.531 41.3247 105.531 41.3247 105.531 41.3247C105.531 46.9455 105.531 46.9455 105.531 46.9455C111.368 46.9455 111.368 46.9455 111.368 46.9455C111.368 46.1679 111.368 46.1679 111.368 46.1679C106.459 46.1679 106.459 46.1679 106.459 46.1679V41.3247ZM118.907 45.3681C118.376 45.9679 117.713 46.3012 116.652 46.3012C114.905 46.3012 113.977 45.3459 113.977 44.124C113.977 42.8798 114.905 41.9468 116.652 41.9468C117.647 41.9468 118.288 42.2354 118.819 42.7688C119.371 42.1467 119.371 42.1467 119.371 42.1467C118.664 41.5024 117.824 41.147 116.63 41.147C114.397 41.147 113.004 42.4354 113.004 44.124C113.004 45.8125 114.353 47.101 116.63 47.101C117.89 47.101 118.774 46.7011 119.46 46.0124L118.907 45.3681Z" fill="white"/>
<path d="M120.92 44.3238H167.062V43.6572H120.92V44.3238Z" fill="white"/>
<path d="M-0.0625 44.3238H46.0798V43.6572H-0.0625V44.3238Z" fill="white"/>
<path d="M77.033 17.7749C76.2371 17.8635 75.2864 17.9082 74.3136 17.9082C74.4462 19.1079 74.4905 22.3739 74.4905 23.9955C74.4905 25.3952 74.4905 25.3952 74.4905 25.3952C65.1825 25.3952 65.1825 25.3952 65.1825 25.3952C65.1825 21.5296 65.1825 21.5296 65.1825 21.5296C65.1825 20.5298 65.2045 18.5081 65.2486 17.775C64.4527 17.8637 63.5242 17.9084 62.5292 17.9084C62.6618 19.1081 62.7061 22.3741 62.7061 23.9957C62.7061 29.6166 62.7061 29.6165 62.7061 29.6165C62.7061 31.2606 62.6618 34.5043 62.5292 35.7041C65.2486 35.7041 65.2486 35.7041 65.2486 35.7041C65.2046 34.993 65.1825 33.0157 65.1825 32.0605C65.1825 27.4838 65.1825 27.4838 65.1825 27.4838C74.4905 27.4838 74.4905 27.4838 74.4905 27.4838C74.4905 29.6165 74.4905 29.6165 74.4905 29.6165C74.4905 31.2606 74.4462 34.5043 74.3136 35.7041C77.033 35.7041 77.033 35.7041 77.033 35.7041C76.9887 34.993 76.9666 33.0157 76.9666 32.0605C76.9666 21.5298 76.9666 21.5298 76.9666 21.5298C76.9666 20.53 76.9886 18.5082 77.033 17.7752V17.7749ZM50.2807 27.1726C50.2807 26.1061 51.2535 25.7507 52.2485 25.7507C53.2874 25.7507 54.3266 26.1061 55.1004 26.6837C55.8963 24.662 55.8963 24.662 55.8963 24.662C55.0783 24.1511 53.7296 23.7067 52.2485 23.7067C49.7942 23.7067 48.0476 25.3063 48.0476 27.2836C48.0476 31.0604 53.995 30.3718 53.995 32.6823C53.995 33.6153 53.0444 34.1264 51.7619 34.1264C50.6787 34.1264 49.4405 33.7265 48.4899 33.1489C47.7158 35.1262 47.7158 35.1262 47.7158 35.1262C48.6446 35.7706 50.4355 36.1705 51.6955 36.1705C54.1719 36.1705 56.2722 34.7041 56.2722 32.2824C56.2722 28.6388 50.2807 29.0387 50.2807 27.1726ZM8.56011 23.9954C8.56011 28.8165 8.56011 28.8165 8.56011 28.8165C8.56011 30.7273 8.56011 30.7273 8.56011 30.7273C8.56011 32.7268 7.45476 33.9265 5.46491 33.9265C3.87303 33.9265 2.76742 33.3044 2.36953 31.7048C-0.0625084 32.5046 -0.0625 32.5046 -0.0625 32.5046C0.490248 34.815 2.45801 36.1705 5.13311 36.1705C7.03466 36.1705 8.44968 35.6148 9.48888 34.5708C10.5278 33.5488 11.0365 32.3269 11.0365 30.0829C11.0365 21.5295 11.0365 21.5295 11.0365 21.5295C11.0365 20.5297 11.0585 18.5079 11.1026 17.7749C10.3067 17.8635 9.37818 17.9082 8.38326 17.9082C8.51584 19.1079 8.56011 22.3739 8.56011 23.9955V23.9954ZM21.7152 33.2377C21.87 28.2166 21.87 28.2166 21.87 28.2166C21.9585 25.5285 20.5435 23.7067 17.5366 23.7067C16.0554 23.7067 14.6844 24.1066 13.4243 24.8397C13.9549 26.8615 13.9548 26.8614 13.9548 26.8614C14.7729 26.2616 16.0111 25.7507 17.1607 25.7507C18.9295 25.7507 19.659 26.617 19.615 28.3724C19.5929 28.75 19.5929 28.75 19.5929 28.75C19.2611 28.7265 18.9295 28.6831 18.598 28.6831C14.574 28.6831 12.4737 30.2605 12.4737 32.6155C12.4737 34.704 13.9106 36.0591 16.1216 36.0591C17.7356 36.0591 19.0842 35.237 19.7697 34.0374C19.8802 35.3483 20.7647 36.0146 21.7153 36.0146C22.3344 36.0146 22.8209 35.8369 23.2408 35.6592C23.4619 34.0373 23.4619 34.0374 23.4619 34.0374C23.0861 34.1707 22.7545 34.2373 22.467 34.2373C21.8922 34.2373 21.6932 33.9487 21.7153 33.2374L21.7152 33.2377ZM19.5043 31.3716C19.4381 32.9932 18.2442 34.1929 16.6302 34.1929C15.2373 34.1929 14.7065 33.4599 14.7065 32.5046C14.7065 31.2159 15.7014 30.1939 18.5315 30.1939C18.8852 30.1939 19.1949 30.2174 19.5486 30.2382L19.5043 31.3716ZM46.2346 26.6393C46.2346 25.7507 46.2789 24.5952 46.3672 23.9289C45.5934 23.9954 44.6428 24.0622 43.7361 24.0622C43.869 25.151 43.9132 26.8838 43.9132 28.3725C43.9132 31.305 43.9132 31.305 43.9132 31.305C43.9132 32.8156 42.0117 34.1043 40.8178 34.1043C39.049 34.1043 38.43 33.0823 38.43 31.1718C38.43 26.6394 38.43 26.6394 38.43 26.6394C38.43 25.7508 38.4742 24.5954 38.5406 23.929C37.7887 23.9955 36.8823 24.0624 35.9757 24.0624C36.0643 25.1511 36.1307 26.884 36.1307 28.3726C36.1307 31.6383 36.1307 31.6383 36.1307 31.6383C36.1307 34.7266 37.5676 36.1707 40.1987 36.1707C41.26 36.1707 43.0287 35.4596 43.9794 33.8822C44.2669 35.704 44.2669 35.7041 44.2669 35.7041C46.4115 35.7041 46.4115 35.7041 46.4115 35.7041C46.2789 34.5488 46.2346 32.9715 46.2346 31.5051V26.6393ZM34.2734 27.9057C34.2734 25.2618 33.0795 23.7067 30.5591 23.7067C29.1441 23.7067 27.4194 24.6175 26.4687 26.1948C26.2919 23.9289 26.2919 23.9289 26.2919 23.9289C25.5402 23.9954 24.899 24.0622 24.0148 24.0622C24.1252 25.151 24.1695 26.8838 24.1695 28.3725C24.1695 31.3937 24.1695 31.3937 24.1695 31.3937C24.1695 32.8824 24.1252 34.6152 24.0148 35.704C26.6016 35.704 26.6016 35.704 26.6016 35.704C26.513 35.0596 26.4909 33.9931 26.4909 33.1046C26.4909 28.9278 26.4909 28.9279 26.4909 28.9279C26.4909 27.3947 28.2817 25.7508 29.94 25.7508C31.4876 25.7508 31.952 26.8838 31.952 28.3725C31.952 31.3937 31.952 31.3937 31.952 31.3937C31.952 32.8824 31.9078 34.6152 31.7752 35.704C34.3839 35.704 34.3838 35.704 34.3838 35.704C34.3398 35.0596 34.2734 33.9931 34.2734 33.1046L34.2734 27.9057ZM129.875 26.1948C129.631 23.8844 129.631 23.8844 129.631 23.8844C128.902 24.0621 128.128 24.1733 127.332 24.2177C127.509 25.2397 127.575 26.3949 127.575 27.8613C127.575 31.3937 127.575 31.3937 127.575 31.3937C127.575 32.8823 127.553 34.6152 127.443 35.7039C130.007 35.7039 130.007 35.7039 130.007 35.7039C129.919 35.0595 129.896 33.993 129.896 33.1045C129.896 28.7501 129.896 28.7501 129.896 28.7501C129.896 26.9728 131.997 26.084 133.655 26.3949C133.965 23.7068 133.965 23.7068 133.965 23.7068C132.063 23.9289 130.847 24.6176 129.875 26.195V26.1948ZM149.64 23.7067C146.059 23.7067 143.715 26.5948 143.715 30.2384C143.715 33.4154 145.882 36.1705 149.331 36.1705C152.935 36.1705 155.278 33.2822 155.278 29.6385C155.278 26.4615 153.112 23.7067 149.64 23.7067ZM149.441 34.1264C147.385 34.1264 146.014 32.6823 146.014 29.8607C146.014 27.5725 147.407 25.7507 149.552 25.7507C151.453 25.7507 152.979 27.2391 152.979 29.9497C152.979 32.2601 151.674 34.1264 149.441 34.1264ZM136.861 27.1726C136.861 26.1061 137.812 25.7507 138.829 25.7507C139.868 25.7507 140.907 26.1061 141.681 26.6837C142.455 24.662 142.455 24.662 142.455 24.662C141.659 24.1511 140.288 23.7067 138.829 23.7067C136.353 23.7067 134.628 25.3063 134.628 27.2836C134.628 31.0604 140.576 30.3718 140.576 32.6823C140.576 33.6153 139.603 34.1264 138.32 34.1264C137.237 34.1264 136.021 33.7265 135.048 33.1489C134.296 35.1262 134.296 35.1262 134.296 35.1262C135.225 35.7706 137.016 36.1705 138.276 36.1705C140.752 36.1705 142.831 34.7041 142.831 32.2824C142.831 28.6388 136.861 29.0387 136.861 27.1726ZM164.454 35.7038C167.063 35.7038 167.063 35.7038 167.063 35.7038C167.018 35.0594 166.952 33.9929 166.952 33.1044C166.952 27.9057 166.952 27.9057 166.952 27.9057C166.952 25.2618 165.758 23.7067 163.216 23.7067C161.823 23.7067 160.098 24.6175 159.147 26.1948C158.97 23.9289 158.97 23.9289 158.97 23.9289C158.197 23.9954 157.578 24.0622 156.693 24.0622C156.804 25.151 156.848 26.8838 156.848 28.3725C156.848 31.3937 156.848 31.3937 156.848 31.3937C156.848 32.8824 156.804 34.6152 156.693 35.704C159.258 35.704 159.258 35.704 159.258 35.704C159.192 35.0596 159.169 33.9931 159.169 33.1046C159.169 28.9278 159.169 28.9279 159.169 28.9279C159.169 27.3947 160.96 25.7508 162.619 25.7508C164.166 25.7508 164.631 26.8838 164.631 28.3725C164.631 31.3937 164.631 31.3937 164.631 31.3937C164.631 32.8824 164.586 34.6152 164.454 35.704V35.7038ZM113.624 20.1521C113.624 19.2855 113.646 18.0413 113.713 17.397C112.961 17.5528 112.032 17.6415 111.126 17.7306C111.236 18.8191 111.258 20.4409 111.258 21.9073C111.303 24.5289 111.303 24.5289 111.303 24.5289C110.639 24.04 109.6 23.7069 108.605 23.7069C105.134 23.7069 102.569 26.6394 102.569 30.372C102.569 33.6155 104.648 36.1706 107.92 36.1706C109.269 36.1706 110.684 35.4595 111.479 34.4375C111.656 35.704 111.656 35.704 111.656 35.704C113.779 35.704 113.779 35.704 113.779 35.704C113.668 34.5487 113.624 32.9714 113.624 31.505V20.1521ZM111.303 32.3714C110.75 33.4599 109.578 34.1487 108.34 34.1487C106.505 34.1487 104.891 32.7933 104.891 30.0829C104.891 27.7058 106.284 25.7284 108.649 25.7284C109.777 25.7284 110.684 26.1506 111.303 26.7947V32.3714ZM121.119 23.7067C117.538 23.7067 115.238 26.5948 115.238 30.2384C115.238 33.4154 117.073 36.1705 120.964 36.1705C122.623 36.1705 124.016 35.6371 125.298 34.7708C124.502 33.1932 124.502 33.1932 124.502 33.1932C124.458 33.0823 124.458 33.0823 124.458 33.0823C123.529 33.6822 122.49 34.1265 121.185 34.1265C118.952 34.1265 117.737 32.9269 117.559 30.572C124.436 30.3721 124.436 30.372 124.436 30.372C124.458 30.372 124.458 30.372 124.458 30.372C125.895 30.3277 125.895 30.3277 125.895 30.3277C125.939 30.0831 125.961 29.5944 125.961 29.4612C125.961 26.2842 124.546 23.7071 121.119 23.7071L121.119 23.7067ZM117.604 28.8165C117.936 27.0169 119.129 25.6617 120.986 25.6617C122.733 25.6617 123.529 26.6837 123.794 28.6387L117.604 28.8165ZM101.022 27.9057C101.022 25.2618 99.8058 23.7067 97.2851 23.7067C95.8701 23.7067 94.1678 24.6175 93.195 26.1948C93.0182 23.9289 93.0182 23.9289 93.0182 23.9289C92.2665 23.9954 91.6474 24.0622 90.7629 24.0622C90.8515 25.151 90.8955 26.8838 90.8955 28.3725C90.8955 31.3937 90.8955 31.3937 90.8955 31.3937C90.8955 32.8824 90.8515 34.6152 90.7629 35.704C93.3276 35.704 93.3276 35.704 93.3276 35.704C93.2393 35.0596 93.2172 33.9931 93.2172 33.1046C93.2172 28.9278 93.2172 28.9279 93.2172 28.9279C93.2172 27.3947 95.008 25.7508 96.6882 25.7508C98.2139 25.7508 98.7002 26.8838 98.7002 28.3725C98.7002 31.3937 98.7002 31.3937 98.7002 31.3937C98.7002 32.8824 98.6559 34.6152 98.5234 35.704C101.11 35.704 101.11 35.704 101.11 35.704C101.066 35.0596 101.022 33.9931 101.022 33.1046L101.022 27.9057ZM89.3036 29.4608C89.3036 26.2838 87.8889 23.7067 84.4618 23.7067C80.8801 23.7067 78.5806 26.5948 78.5806 30.2384C78.5806 33.4154 80.4379 36.1705 84.3071 36.1705C85.9652 36.1705 87.3581 35.6371 88.6405 34.7708C87.8446 33.1932 87.8446 33.1932 87.8446 33.1932C87.8003 33.1045 87.8003 33.1045 87.8003 33.1045C86.8939 33.6821 85.8326 34.1264 84.528 34.1264C82.2952 34.1264 81.0791 32.9268 80.9023 30.5718C87.8003 30.372 87.8003 30.3719 87.8003 30.3719C89.2375 30.3276 89.2375 30.3276 89.2375 30.3276C89.2818 30.083 89.3258 29.5943 89.3036 29.4611L89.3036 29.4608ZM80.9463 28.8165C81.2781 27.0169 82.472 25.6617 84.329 25.6617C86.0758 25.6617 86.8718 26.6837 87.1369 28.6387L80.9463 28.8165Z" fill="white"/>
</g>
<defs>
<clipPath id="clip0_480_16009">
<rect width="167" height="64" fill="white"/>
</clipPath>
</defs>
</svg>
