<svg width="107" height="64" viewBox="0 0 107 64" fill="none" xmlns="http://www.w3.org/2000/svg">
<g clip-path="url(#clip0_480_16140)">
<path d="M29.4898 27.375V35.7966C29.4898 36.2539 29.4139 36.6731 29.2622 37.1304C29.1106 37.5876 28.8451 37.9687 28.5038 38.2736C28.1625 38.6165 27.7074 38.9214 27.1386 39.1119C26.5698 39.3025 25.8872 39.4168 25.015 39.4168C24.1807 39.4168 23.4981 39.3025 22.9293 39.1119C22.3605 38.9214 21.9054 38.6165 21.5641 38.2736C21.2228 37.9306 20.9573 37.5495 20.8057 37.1304C20.654 36.7112 20.5781 36.2539 20.5781 35.7966V27.375H23.2327V35.568C23.2327 36.0634 23.3843 36.4444 23.6498 36.7112C23.9153 36.9779 24.3703 37.1304 25.0529 37.1304C25.6976 37.1304 26.1906 36.9779 26.456 36.7112C26.7215 36.4444 26.8732 36.0634 26.8732 35.568V27.375H29.4898Z" fill="white"/>
<path d="M34.1181 31.4524V39.2643H31.6152V27.375H34.8765L38.7446 35.568V27.375H41.3232V39.2643H38.024L34.1181 31.4524Z" fill="white"/>
<path d="M46.0998 27.375H43.4453V39.2643H46.0998V27.375Z" fill="white"/>
<path d="M54.934 39.2643H51.1039L47.8047 27.375H50.4971L53.0379 36.8636L55.5408 27.375H58.2711L54.934 39.2643Z" fill="white"/>
<path d="M59.6719 39.2643V27.375H67.1046V29.7376H62.3264V31.9478H66.7254V34.3105H62.3264V36.9017H67.1046V39.2643H59.6719Z" fill="white"/>
<path d="M99.6445 39.2643V27.375H102.299V36.9017H107.001V39.2643H99.6445Z" fill="white"/>
<path d="M39.9196 50.0487C39.9196 50.506 39.8438 50.9251 39.6542 51.3824C39.4646 51.8016 39.237 52.2208 38.8957 52.5637C38.5544 52.9067 38.0615 53.2115 37.4926 53.4021C36.9238 53.5926 36.2033 53.7069 35.369 53.7069C34.5347 53.7069 33.8142 53.5926 33.2454 53.4021C32.6765 53.2115 32.1835 52.9067 31.8423 52.5637C31.463 52.2208 31.1976 51.8397 31.0838 51.3824C30.8942 50.9632 30.8184 50.506 30.8184 50.0487V45.0948C30.8184 44.6375 30.8942 44.2183 31.0838 43.761C31.2734 43.3419 31.501 42.9227 31.8423 42.5797C32.1835 42.2368 32.6765 41.9319 33.2454 41.7414C33.8142 41.5508 34.5347 41.4365 35.369 41.4365C36.2033 41.4365 36.9238 41.5508 37.4926 41.7414C38.0615 41.9319 38.5544 42.2368 38.8957 42.5797C39.275 42.9227 39.5404 43.3038 39.6542 43.761C39.8438 44.1802 39.9196 44.6375 39.9196 45.0948V50.0487ZM37.2651 45.3234C37.2651 44.8661 37.1134 44.4851 36.81 44.2183C36.5066 43.9516 36.0516 43.7991 35.3311 43.7991C34.6864 43.7991 34.1934 43.9516 33.8521 44.2183C33.5487 44.4851 33.3971 44.8661 33.3971 45.3234V49.82C33.3971 50.2773 33.5487 50.6584 33.8521 50.9251C34.1555 51.1919 34.6105 51.3443 35.3311 51.3443C35.9757 51.3443 36.4687 51.1919 36.81 50.9251C37.1134 50.6584 37.2651 50.2773 37.2651 49.82V45.3234Z" fill="white"/>
<path d="M50.0414 50.6964C50.0414 51.5347 49.738 52.2207 49.2071 52.7542C48.6762 53.2877 47.804 53.5163 46.5905 53.5163H41.5469V41.627H46.2113C47.4627 41.627 48.297 41.8556 48.8279 42.3129C49.3588 42.7702 49.5863 43.418 49.5863 44.2182V45.4376C49.5863 45.8568 49.5105 46.2379 49.2829 46.5427C49.0933 46.8476 48.752 47.1143 48.297 47.3049C48.79 47.4192 49.2071 47.6859 49.5484 48.067C49.8897 48.4862 50.0414 48.9435 50.0414 49.477V50.6964ZM46.9318 44.6374C46.9318 44.3706 46.8559 44.1801 46.6663 44.0277C46.4767 43.8753 46.2492 43.799 45.87 43.799H44.2014V46.5046H45.8321C46.1734 46.5046 46.4767 46.4284 46.6284 46.276C46.818 46.0855 46.8939 45.933 46.8939 45.6663L46.9318 44.6374ZM47.3489 49.5913C47.3489 49.2483 47.2731 49.0197 47.0456 48.8292C46.8559 48.6386 46.5905 48.5624 46.2113 48.5624H44.2014V51.3442H45.8321C46.2492 51.3442 46.5905 51.268 46.8939 51.1537C47.1972 51.0012 47.311 50.7345 47.311 50.3153L47.3489 49.5913Z" fill="white"/>
<path d="M60.5856 50.0487C60.5856 50.506 60.5098 50.9251 60.3202 51.3824C60.1306 51.8016 59.903 52.2208 59.5617 52.5637C59.2204 52.9067 58.7275 53.2115 58.1586 53.4021C57.5898 53.5926 56.8693 53.7069 56.035 53.7069C55.2007 53.7069 54.4802 53.5926 53.9114 53.4021C53.3425 53.2115 52.8496 52.9067 52.5083 52.5637C52.129 52.2208 51.8636 51.8397 51.7498 51.3824C51.5602 50.9632 51.4844 50.506 51.4844 50.0487V45.0948C51.4844 44.6375 51.5602 44.2183 51.7498 43.761C51.9394 43.3038 52.167 42.9227 52.5083 42.5797C52.8496 42.2368 53.3425 41.9319 53.9114 41.7414C54.4802 41.5508 55.2007 41.4365 56.035 41.4365C56.8693 41.4365 57.5898 41.5508 58.1586 41.7414C58.7275 41.9319 59.2204 42.2368 59.5617 42.5797C59.941 42.9227 60.2064 43.3038 60.3202 43.761C60.5098 44.1802 60.5856 44.6375 60.5856 45.0948V50.0487ZM57.9311 45.3234C57.9311 44.8661 57.7794 44.4851 57.476 44.2183C57.1727 43.9516 56.7176 43.7991 55.9971 43.7991C55.3524 43.7991 54.8594 43.9516 54.5181 44.2183C54.2148 44.4851 54.0631 44.8661 54.0631 45.3234V49.82C54.0631 50.2773 54.2148 50.6584 54.5181 50.9251C54.8215 51.1919 55.2766 51.3443 55.9971 51.3443C56.6418 51.3443 57.1347 51.1919 57.476 50.9251C57.7794 50.6584 57.9311 50.2773 57.9311 49.82V45.3234Z" fill="white"/>
<path d="M67.1056 43.9896V53.5163H64.4131V43.9896H61.2656V41.627H70.291V43.9896H67.1056Z" fill="white"/>
<path d="M91.3761 27.375H95.1683L98.5054 39.2643H95.775L93.2342 29.8138L90.7693 39.2643H88.0389L91.3761 27.375Z" fill="white"/>
<path d="M87.3554 36.0252C87.3554 36.5968 87.2795 37.0922 87.1658 37.5495C87.052 37.9687 86.8245 38.3498 86.5211 38.6546C86.2177 38.9595 85.7626 39.1881 85.1938 39.3024C84.625 39.4549 83.9045 39.493 83.0323 39.493C82.3497 39.493 81.6671 39.4168 80.9845 39.3024C80.3019 39.15 80.1123 39.0738 79.6572 38.9214V36.7112C80.1881 36.9017 80.757 37.016 81.3258 37.1303C81.8567 37.2447 82.4634 37.3209 83.0702 37.3209C83.4115 37.3209 83.7149 37.2828 83.9045 37.2447C84.132 37.2066 84.2837 37.1303 84.3975 37.0541C84.5112 36.9398 84.5871 36.8255 84.625 36.635C84.6629 36.4825 84.7008 36.292 84.7008 36.0252C84.7008 35.7585 84.7008 35.5299 84.6629 35.3774C84.625 35.225 84.5871 35.0726 84.4354 34.9582C84.2837 34.8439 84.132 34.7677 83.8286 34.6534C83.5632 34.5772 83.1839 34.4629 82.691 34.3485C81.9704 34.1961 81.4016 34.0437 80.9845 33.8531C80.5673 33.6626 80.226 33.4721 79.9985 33.2053C79.771 32.9386 79.6193 32.5956 79.5434 32.2146C79.4676 31.7954 79.4297 31.3 79.4297 30.6522C79.4297 30.0806 79.5055 29.5471 79.6193 29.166C79.7331 28.7468 79.9606 28.4039 80.264 28.1752C80.5673 27.9085 80.9845 27.7179 81.5154 27.6036C82.0463 27.4893 82.7289 27.4131 83.5253 27.4131C84.0562 27.4131 84.625 27.4512 85.2317 27.4893C85.8385 27.5655 86.4832 27.6417 87.1278 27.7942V30.0425C86.4452 29.9281 85.611 29.8138 85.118 29.7376C84.625 29.6614 84.132 29.6614 83.5632 29.6614C83.2598 29.6614 83.0323 29.6614 82.8427 29.6995C82.6531 29.7376 82.5014 29.7757 82.4255 29.89C82.3118 29.9662 82.2359 30.0806 82.198 30.233C82.1601 30.3854 82.1221 30.5379 82.1221 30.7665C82.1221 31.0713 82.1221 31.2619 82.1601 31.4143C82.198 31.5667 82.2359 31.7192 82.3876 31.7954C82.5014 31.8716 82.691 31.9859 82.9564 32.0621C83.2219 32.1383 83.6011 32.2527 84.0562 32.3289C84.8525 32.5194 85.4972 32.7099 85.9143 32.9005C86.3315 33.091 86.6728 33.3197 86.9003 33.5864C87.1278 33.8531 87.2795 34.1961 87.3174 34.5772C87.3554 34.9582 87.3554 35.4155 87.3554 36.0252Z" fill="white"/>
<path d="M78.9413 50.2391C78.9413 50.8107 78.8655 51.3061 78.7517 51.7634C78.6379 52.1826 78.4104 52.5636 78.107 52.8685C77.8037 53.1734 77.3486 53.402 76.7798 53.5163C76.2109 53.6687 75.4904 53.7069 74.6182 53.7069C73.9356 53.7069 73.253 53.6306 72.5704 53.5163C71.8878 53.3639 71.6982 53.2877 71.2432 53.1353V50.925C71.7741 51.1156 72.3429 51.2299 72.9117 51.3442C73.4426 51.4585 74.0494 51.4967 74.6561 51.4967C74.9974 51.4967 75.3008 51.4585 75.4904 51.4204C75.7179 51.3823 75.8696 51.3061 75.9834 51.2299C76.0972 51.1156 76.173 51.0013 76.2109 50.8107C76.2489 50.6583 76.2868 50.4678 76.2868 50.201C76.2868 49.9343 76.2868 49.7056 76.2488 49.5532C76.2109 49.4008 76.173 49.2483 76.0213 49.134C75.8696 49.0197 75.7179 48.9435 75.4146 48.8292C75.1491 48.753 74.7699 48.6386 74.2769 48.5243C73.5564 48.3719 72.9876 48.2195 72.5704 48.0289C72.1533 47.8384 71.812 47.6479 71.5845 47.3811C71.3569 47.1144 71.2052 46.7714 71.1294 46.3903C71.0535 45.9712 71.0156 45.4758 71.0156 44.828C71.0156 44.2563 71.0915 43.7229 71.2052 43.3418C71.319 42.9226 71.5465 42.5796 71.8499 42.351C72.1533 42.0843 72.5704 41.8937 73.1013 41.7794C73.6322 41.6651 74.3148 41.5889 75.1112 41.5889C75.6421 41.5889 76.2109 41.627 76.8177 41.6651C77.4244 41.7413 78.0691 41.8175 78.7138 41.9699V44.2182C78.0312 44.1039 77.1969 43.9896 76.7039 43.9134C76.2109 43.8372 75.7179 43.8372 75.1491 43.8372C74.8457 43.8372 74.6182 43.8372 74.4286 43.8753C74.239 43.9134 74.0873 43.9515 74.0115 44.0658C73.8977 44.142 73.8218 44.2563 73.7839 44.4088C73.746 44.5612 73.7081 44.7136 73.7081 44.9423C73.7081 45.2471 73.7081 45.4377 73.746 45.5901C73.7839 45.7425 73.8218 45.8949 73.9735 45.9712C74.0873 46.0474 74.2769 46.1617 74.5424 46.2379C74.8078 46.3141 75.187 46.4284 75.6421 46.5047C76.4385 46.6952 77.0831 46.8857 77.5003 47.0763C77.9174 47.2668 78.2587 47.4954 78.4862 47.7622C78.7138 48.0289 78.8655 48.3719 78.9034 48.753C78.9034 49.1721 78.9413 49.6675 78.9413 50.2391Z" fill="white"/>
<path d="M74.5802 31.4143C74.5802 31.643 74.5044 31.8335 74.3148 32.024C74.1252 32.2146 73.8976 32.2527 73.5184 32.2527H71.8878V29.5471H73.5184C73.8976 29.5471 74.1631 29.6233 74.3148 29.7757C74.5044 29.9282 74.5802 30.1187 74.5802 30.3854V31.4143ZM75.9454 33.0529C76.4005 32.8624 76.7418 32.5956 76.9314 32.2908C77.121 31.9859 77.2348 31.6049 77.2348 31.1857V29.9663C77.2348 29.166 76.9693 28.5182 76.4763 28.0609C75.9454 27.6036 75.1111 27.375 73.8597 27.375H69.1953V39.2643H71.8878V34.3867H73.8976C74.2389 34.3867 74.5423 34.4629 74.7319 34.6534C74.9215 34.8439 75.0353 35.0726 75.0353 35.4155V39.3406H77.6898V35.3012C77.6898 34.7677 77.5002 34.2723 77.1968 33.8532C76.8176 33.434 76.4005 33.1672 75.9454 33.0529Z" fill="white"/>
<path d="M26.1885 45.6282C26.1885 45.8568 26.1126 46.0474 25.923 46.2379C25.7334 46.4284 25.5059 46.4665 25.1266 46.4665H23.496V43.7609H25.1266C25.5059 43.7609 25.7713 43.8372 25.923 43.9896C26.1126 44.142 26.1885 44.3325 26.1885 44.5993V45.6282ZM27.5157 47.3049C27.9708 47.1143 28.3121 46.8476 28.5017 46.5427C28.6913 46.2379 28.8051 45.8568 28.8051 45.4376V44.2182C28.8051 43.418 28.5396 42.7702 28.0466 42.3129C27.5157 41.8556 26.6814 41.627 25.43 41.627H20.7656V53.5163H23.4581V48.6005H25.4679C25.8092 48.6005 26.1126 48.6767 26.3022 48.8673C26.4918 49.0578 26.6056 49.2864 26.6056 49.6294V53.5925H29.2601V49.5913C29.2601 49.0578 29.0705 48.5624 28.7672 48.1432C28.4259 47.6859 28.0466 47.4192 27.5157 47.3049Z" fill="white"/>
<path d="M15.6478 27.1848L11.4763 23.0693C11.0213 22.612 10.7179 22.0404 10.7179 22.0404C10.1491 20.7828 10.7558 19.6015 10.7558 19.6015C11.135 18.7632 11.8556 18.001 11.8556 18.001C12.7278 16.8959 12.614 16.1338 12.614 16.1338C12.5761 15.5241 12.1969 15.2574 12.0452 15.143C11.7797 14.9906 11.4384 14.9525 11.0213 14.9525C10.4525 14.9525 10.0353 15.0668 9.76986 15.2955C9.50441 15.5241 9.35272 15.829 9.35272 16.2481L9.27687 20.135V22.9168C9.27687 23.2979 9.20103 23.679 9.08726 24.06C8.93557 24.4411 8.74597 24.746 8.44259 25.0508C8.13922 25.3557 7.76 25.5843 7.30493 25.7367C6.81195 25.9273 6.2052 26.0035 5.5226 26.0035C4.84001 26.0035 4.23326 25.9273 3.74027 25.7367C3.24729 25.5462 2.86807 25.3176 2.56469 25.0508C2.26132 24.746 2.07171 24.403 1.92002 24.06C1.76833 23.679 1.73041 23.2979 1.73041 22.9168V10.7607H1.23742C0.516907 10.7607 -0.0898438 11.3705 -0.0898438 12.0945V26.0035C-0.0898438 26.7275 0.516907 27.3372 1.23742 27.3372H15.0789C15.2685 27.2991 15.4581 27.261 15.6478 27.1848Z" fill="white"/>
<path d="M15.1201 10.7607H4.04688V22.6501C4.04688 23.0693 4.16064 23.3741 4.35025 23.6028C4.57778 23.8314 4.957 23.9076 5.52583 23.9076C6.09466 23.9076 6.5118 23.7933 6.70141 23.6028C6.92894 23.3741 7.00478 23.0693 7.00478 22.6501V20.2875V16.0195C7.00478 15.6003 7.08063 15.2574 7.23232 14.8763C7.38401 14.4952 7.61154 14.1523 7.91491 13.8855C8.21829 13.5807 8.63543 13.352 9.16634 13.1615C9.69724 12.9709 10.304 12.8947 10.9866 12.8947C11.6692 12.8947 12.3139 12.9709 12.8068 13.1615C13.2998 13.352 13.717 13.5807 14.0203 13.8855C14.3237 14.1904 14.5512 14.5333 14.7029 14.8763C14.7409 14.9906 14.7788 15.1049 14.8167 15.2192C14.8925 15.4098 14.8925 15.5241 14.8925 15.5241C14.8925 15.6003 14.8925 15.6384 14.8925 15.6765C14.8925 15.7146 14.8925 15.7527 14.8925 15.7527C14.8925 15.7527 14.8925 15.829 14.8925 15.8671C14.8925 15.9433 14.8925 15.9433 14.8925 16.0195C14.8546 17.277 14.172 18.1154 14.172 18.1154C13.9824 18.4583 12.9585 19.8302 12.9585 19.8302C12.2759 20.7447 12.9965 21.3926 12.9965 21.3926L16.3715 24.7841V12.0564C16.4473 11.3705 15.8406 10.7607 15.1201 10.7607Z" fill="white"/>
</g>
<defs>
<clipPath id="clip0_480_16140">
<rect width="107" height="64" fill="white"/>
</clipPath>
</defs>
</svg>
