<svg width="93" height="64" viewBox="0 0 93 64" fill="none" xmlns="http://www.w3.org/2000/svg">
<path d="M74.7121 41.145H18.7891L23.2495 45.6272L74.7121 41.145Z" fill="white"/>
<path d="M83.6912 38.2875V29.3231C83.6912 27.6422 84.8621 26.2415 86.5348 26.2415C88.2074 26.2415 89.3783 27.6422 89.3783 29.3231V38.2875H92.8352V29.3231C92.8352 25.6252 90.3262 22.6558 86.6463 22.6558C84.9736 22.6558 83.6912 23.6082 83.6912 23.6082V22.9919H80.2344V38.2314H83.6912V38.2875Z" fill="white"/>
<path d="M72.2642 22.6001C68.2498 22.6001 65.4062 26.1298 65.4062 30.6121C65.4062 35.3184 68.9746 38.624 72.5987 38.624C74.4387 38.624 76.7247 38.0077 78.6761 35.2063L75.6095 33.4134C73.2678 36.8871 69.3091 35.1503 68.8631 31.6205H78.7876C79.6797 26.2419 76.1671 22.6001 72.2642 22.6001ZM75.275 28.6511H69.0861C69.811 25.1213 74.6059 24.8972 75.275 28.6511Z" fill="white"/>
<path d="M64.2877 34.6458C63.9532 34.8699 63.5629 35.038 63.1168 35.038C62.5593 35.038 61.4999 34.5897 61.4999 33.189V26.6338H64.455V22.992H61.4999V19.1821H58.0431V22.992H56.2031V26.6338H58.0431V33.189C58.0431 36.6067 60.6078 38.6237 63.1726 38.6237C64.1204 38.6237 65.4586 38.2876 66.5179 37.6713L64.2877 34.6458Z" fill="white"/>
<path d="M51.5736 22.9922V31.9566C51.5736 33.6374 50.4028 35.0381 48.7301 35.0381C47.0574 35.0381 45.8865 33.6374 45.8865 31.9566V22.9922H42.4297V31.9566C42.4297 35.6544 44.9387 38.6239 48.6186 38.6239C50.2912 38.6239 51.5736 37.6714 51.5736 37.6714V38.2317H55.0305V22.9922H51.5736Z" fill="white"/>
<path d="M35.962 30.1637L41.8721 22.9922H37.0771L32.8954 28.3148V17.9497H29.3828V38.2877H32.8954V32.0126L38.0249 38.2877H42.8199L35.962 30.1637Z" fill="white"/>
<path d="M23.9757 22.9923V23.6646C22.9163 22.9923 22.0242 22.6001 20.7418 22.6001C16.8389 22.6001 13.8281 26.1859 13.8281 30.6121C13.8281 35.0382 16.7832 38.624 20.7418 38.624C22.0242 38.624 22.9721 38.2318 23.9757 37.5595V38.2318H27.4325V22.9923H23.9757ZM20.6861 34.9822C18.7346 34.9822 17.3407 33.0773 17.3407 30.6681C17.3407 28.2589 18.7346 26.3539 20.6861 26.3539C22.6375 26.3539 23.9757 28.2589 23.9757 30.6681C24.0314 33.0773 22.6375 34.9822 20.6861 34.9822Z" fill="white"/>
<path d="M3.90537 38.2876V32.3486H6.41438L10.8191 38.2315H15.3353L9.98275 31.116C11.6554 29.9394 12.7148 27.9785 12.7148 25.7374C12.7148 22.0956 9.75972 19.1821 6.19136 19.1821H0.28125V38.2315H3.90537V38.2876ZM3.90537 22.8239H6.24711C7.86403 22.8239 9.20217 24.1686 9.20217 25.7934C9.20217 27.4182 7.86403 28.7629 6.24711 28.7629H3.90537V22.8239Z" fill="white"/>
</svg>
