<svg width="183" height="64" viewBox="0 0 183 64" fill="none" xmlns="http://www.w3.org/2000/svg">
<path d="M45.7863 42.0348C41.6106 44.4197 39.8401 43.4064 37.0242 38.435C34.6076 34.1697 33.1167 30.9545 31.6272 30.9106C31.4009 30.9044 31.2887 30.547 31.5877 30.4414C35.1696 29.185 36.7988 26.994 36.7988 24.2155C36.7988 21.1947 34.638 18.8996 30.7467 18.8996C29.0095 18.8996 27.4724 19.6048 26.145 20.3438C29.7473 20.9377 31.7218 22.5061 31.7974 25.0682C31.8763 27.7412 29.1892 29.6402 26.5591 30.493C28.8949 31.126 30.8641 32.5363 30.9354 34.9786C31.0743 39.7025 26.6785 42.5986 22.7277 42.5986C20.6411 42.5986 19.9755 42.1939 19.4772 40.9021C18.9514 39.5405 20.1381 38.1895 21.0994 37.9731C21.2981 37.9272 21.4407 38.1594 21.2772 38.3123C20.6596 38.887 20.6605 39.6499 21.009 40.507C21.4098 41.4912 22.0982 42.0047 23.158 42.0047C25.6934 42.0047 27.4154 38.9615 27.5485 35.2122C27.6098 33.4808 27.3569 32.6892 26.5563 31.8541C25.9744 31.2469 25.3178 30.9727 23.96 31.2154C23.6072 31.278 23.5421 30.805 23.8792 30.7238C27.8571 29.7731 28.7775 27.4522 28.7142 25.3014C28.6643 23.6035 27.8599 22.0575 24.946 21.361C23.4784 22.744 22.9074 24.8748 22.1125 27.2104C20.8897 30.8021 22.005 27.5353 20.583 31.7433C19.5961 34.6623 18.9647 36.3029 16.9983 38.7432C14.9055 41.3431 12.5313 43.0175 9.99771 43.0175C8.29094 43.0175 6.39732 42.4591 5.40416 40.2385C4.04729 37.2029 6.17577 35.2776 8.55765 34.9566C8.89473 34.9107 8.8662 35.2905 8.65511 35.3851C7.3011 35.9828 6.60556 37.1695 7.12995 39.315C7.55022 41.034 8.57904 42.4204 9.99676 42.4204C11.9969 42.4204 14.422 40.4525 16.7131 33.3824C17.8945 29.7344 16.7131 33.3824 17.8945 29.7344C18.544 27.7341 19.1454 26.4308 19.7068 25.502C20.4613 24.2523 22.2851 22.4994 24.1226 21.1689C23.3434 21.0538 22.4429 21.0041 21.3979 21.0041C19.1487 21.0041 16.5667 21.5702 15.4142 22.2481C14.3816 22.8558 13.8891 23.7329 14.045 25.138C14.2409 26.9056 15.1409 27.7145 15.8645 28.207C16.1122 28.3757 15.9752 28.6728 15.7176 28.615C14.8142 28.4148 12.7281 27.9409 12.1224 25.7939C11.5181 23.6517 13.6737 22.2257 16.2995 21.2363C17.9192 20.6271 20.8464 20.0906 23.2183 20.0906C23.912 20.0906 24.5619 20.104 25.17 20.1537C26.8339 19.1552 29.4645 17.9585 32.3522 17.9585C37.3765 17.9585 40.1801 20.6544 40.1801 23.8916C40.1801 26.6075 38.0331 28.283 35.2399 29.5079C40.0032 38.22 42.831 41.603 44.9201 41.603C46.633 41.603 47.0709 38.693 47.0362 37.4953C46.9977 36.1896 46.4695 35.5237 45.5771 35.2977C45.2747 35.2203 45.2966 34.8663 45.6532 34.9174C47.9808 35.2447 48.9892 36.2374 49.0258 37.4762C49.0696 38.9897 48.2875 40.6059 45.7863 42.0348ZM6.68162 48.1504C12.0069 52.3746 18.8682 53.2833 27.1059 53.2833C35.3317 53.2833 41.4509 52.6269 46.7756 48.4137C52.0267 44.2597 54.2118 38.3275 54.2118 31.7853C54.2118 25.2608 52.2901 19.5904 47.0671 15.4384C41.7399 11.2027 35.3545 10.2864 27.1059 10.2864C18.8677 10.2864 12.1966 11.6847 6.87084 15.908C1.63308 20.0624 0 25.2512 0 31.7853C0 38.3175 1.44434 43.9964 6.68162 48.1504ZM1.97872 31.7853C1.97872 26.0882 2.41659 20.1632 7.16275 16.4306C11.9094 12.6975 19.8633 12.0196 27.1059 12.0196C34.3599 12.0196 42.0361 12.236 46.7842 15.9796C51.5166 19.7113 52.233 26.0983 52.233 31.7853C52.233 37.4896 51.2617 44.1269 46.5018 47.8623C41.7575 51.5844 34.3366 51.5496 27.1059 51.5496C19.8633 51.5496 11.7259 51.3413 6.97971 47.6087C2.23307 43.8751 1.97872 37.4815 1.97872 31.7853Z" fill="white"/>
<path d="M165.211 45.9407H163.512C161.967 45.9407 161.429 45.9063 161.429 44.999V41.5469H164.396C165.7 41.5469 166.178 42.0466 166.178 42.8898H166.784V39.6101H166.178C166.047 40.1261 165.895 40.8131 164.396 40.8131H161.429V37.7025C161.429 36.9495 162.025 36.8889 163.477 36.8889H164.492C166.107 36.8889 167.177 37.0804 167.177 38.4664H167.786L167.72 36.1589H157.551V36.6987C159.097 36.9333 159.161 36.8774 159.161 38.4267V46.6807H168.045L168.109 44.41H167.504C167.35 45.8408 166.593 45.9407 165.211 45.9407Z" fill="white"/>
<path d="M128.991 42.386C128.991 44.33 128.945 46.1545 125.692 46.1545C122.647 46.1545 122.869 44.1537 122.869 42.3717V36.1586H118.949V36.6985C120.578 36.9092 120.545 37.0592 120.545 38.372V43.1518C120.545 45.4794 121.71 46.8888 125.461 46.8888C130.266 46.8888 130.524 44.6515 130.524 42.559V36.1586H128.991V42.386Z" fill="white"/>
<path d="M113.581 22.386C113.581 24.33 113.536 26.1545 110.281 26.1545C107.236 26.1545 107.457 24.1537 107.457 22.3717V16.1586H103.539V16.6985C105.166 16.9092 105.135 17.0592 105.135 18.372V23.1518C105.135 25.4794 106.299 26.8888 110.05 26.8888C114.857 26.8888 115.114 24.6515 115.114 22.559V16.1586H113.58V22.386H113.581Z" fill="white"/>
<path d="M99.1821 22.386C99.1821 24.33 99.1379 26.1545 95.8831 26.1545C92.838 26.1545 93.0581 24.1537 93.0581 22.3717V16.1586H89.1406V16.6985C90.7685 16.9092 90.7362 17.0592 90.7362 18.372V23.1518C90.7362 25.4794 91.9014 26.8888 95.6516 26.8888C100.458 26.8888 100.716 24.6515 100.716 22.559V16.1586H99.1816V22.386H99.1821Z" fill="white"/>
<path d="M69.4773 21.1023C70.9331 20.8477 72.3674 20.2171 72.3674 18.6864C72.3674 16.5767 69.7136 16.1586 67.0232 16.1586H61V16.6865C62.1553 16.8533 62.5394 16.8442 62.5394 18.3916V26.68H66.6984C68.6182 26.68 73.159 26.6762 73.159 23.8775C73.1585 21.8916 71.3533 21.3058 69.4773 21.1023ZM64.84 17.6984C64.84 16.935 65.2356 16.8891 66.6409 16.8891C68.7684 16.8891 69.9622 17.3549 69.9622 18.7547C69.9622 20.2973 68.4746 20.6924 66.4051 20.8434C64.84 20.9571 64.84 20.9571 64.84 20.9571V17.6984ZM67.0854 25.9409C65.7999 25.9409 64.84 25.9409 64.84 25.3041V21.6493C64.84 21.6493 64.84 21.6493 66.2706 21.527C67.4173 21.4301 68.7965 21.5461 69.7031 22.0115C70.3459 22.3416 70.7552 22.8528 70.7552 23.5914C70.7548 25.177 69.6561 25.9409 67.0854 25.9409Z" fill="white"/>
<path d="M181.483 36.1586V44.4145L174.81 36.1586H170.348V36.6961C171.715 36.9092 171.961 36.8442 171.961 38.297V46.6805H173.424V37.8279L180.564 46.6805H182.919V36.1586H181.483Z" fill="white"/>
<path d="M83.2613 21.5097C84.4257 21.3282 86.6711 20.711 86.6711 18.9108C86.6711 16.1246 82.5344 16.159 81.0744 16.159H75.3203V16.6922C76.767 16.8866 76.9244 16.858 76.9244 18.4078V26.6804H79.1908V21.8681C79.1908 21.8681 79.1907 21.8681 80.0845 21.7973C81.7904 21.6621 82.3509 22.4366 85.2329 26.6804H87.7574C85.6147 23.3949 83.9845 21.5379 83.2613 21.5097ZM81.2707 21.0162C79.1903 21.1715 79.1903 21.1715 79.1903 21.1715V18.2807C79.1903 17.0854 79.2255 16.8809 81.2408 16.8809C82.7008 16.8809 84.273 17.4078 84.273 19.0279C84.273 20.4343 82.7379 20.9064 81.2707 21.0162Z" fill="white"/>
<path d="M91.7504 38.2124C91.7504 37.2072 92.6827 36.7333 93.8361 36.7333C95.5324 36.7333 97.136 37.233 97.7241 37.4375V36.2794C97.1593 36.202 95.7482 35.9999 94.2483 35.9999C91.187 35.9999 89.3633 36.9812 89.3633 38.7465C89.3633 42.1561 96.4195 41.8786 96.4195 44.3466C96.4195 45.7321 95.0712 46.0359 93.7091 46.0956C92.5691 46.1486 91.7889 46.0512 91.2132 45.9007C90.5865 45.6637 90.1715 45.2166 90.0869 44.4178H89.476L89.5411 46.4587C89.998 46.5366 91.6881 46.8653 93.3573 46.8653C96.3558 46.8653 98.809 46.0263 98.809 43.7446C98.8081 40.2547 91.7504 40.5576 91.7504 38.2124Z" fill="white"/>
<path d="M113.155 36.1586L109.334 44.4117L105.452 36.1586H100.84V36.6985C102.091 36.8977 102.45 36.7878 102.45 38.2526V46.6805H103.848V37.5288L108.145 46.68H109.574L113.888 37.4299V46.68H116.116V36.1586H113.155Z" fill="white"/>
<path d="M77.7686 36.1586V36.6865C78.0947 36.7224 78.3924 36.7381 78.6562 36.784C79.0042 36.8442 79.1811 36.9311 79.2767 37.1394C79.3741 37.3487 79.3028 37.5627 79.1469 37.8814L74.8633 46.68H76.5411L78.2255 43.2092H83.1452L84.7811 46.68H87.3403L82.2851 36.1586H77.7686ZM78.5759 42.3703L80.7015 37.7839L82.7953 42.3631L78.5759 42.3703Z" fill="white"/>
<path d="M129.124 24.415L122.453 16.1591H117.988V16.6966C119.357 16.9096 119.603 16.8447 119.603 18.2975V26.6809H121.066V17.8283L128.205 26.6809H130.56V16.1586H129.124V24.415Z" fill="white"/>
<path d="M148.505 38.2124C148.505 37.2072 149.438 36.7333 150.59 36.7333C152.286 36.7333 153.891 37.233 154.478 37.4375V36.2794C153.914 36.202 152.503 35.9999 151.003 35.9999C147.942 35.9999 146.117 36.9812 146.117 38.7465C146.117 42.1561 153.174 41.8786 153.174 44.3466C153.174 45.7321 151.824 46.0359 150.462 46.0956C149.323 46.1486 148.542 46.0512 147.967 45.9007C147.34 45.6637 146.925 45.2166 146.841 44.4178H146.23L146.296 46.4587C146.753 46.5366 148.442 46.8653 150.112 46.8653C153.111 46.8653 155.563 46.0263 155.563 43.7446C155.562 40.2547 148.505 40.5576 148.505 38.2124Z" fill="white"/>
<path d="M136.393 38.2124C136.393 37.2072 137.324 36.7333 138.478 36.7333C140.174 36.7333 141.777 37.233 142.365 37.4375V36.2794C141.801 36.202 140.39 35.9999 138.891 35.9999C135.829 35.9999 134.004 36.9812 134.004 38.7465C134.004 42.1561 141.062 41.8786 141.062 44.3466C141.062 45.7321 139.711 46.0359 138.349 46.0956C137.21 46.1486 136.429 46.0512 135.855 45.9007C135.228 45.6637 134.812 45.2166 134.728 44.4178H134.118L134.182 46.4587C134.64 46.5366 136.33 46.8653 137.999 46.8653C140.997 46.8653 143.452 46.0263 143.452 43.7446C143.451 40.2547 136.393 40.5576 136.393 38.2124Z" fill="white"/>
<path d="M68.9753 41.5096C70.1396 41.3281 72.386 40.7108 72.386 38.9107C72.386 36.1245 68.2502 36.1589 66.7888 36.1589H61V36.6921C62.4477 36.8865 62.6046 36.8578 62.6046 38.4076V46.6802H64.9047V41.8679C64.9047 41.8679 64.9047 41.8679 65.7989 41.7972C67.5057 41.662 68.0648 42.4364 70.9478 46.6802H73.4728C71.3305 43.3948 69.6998 41.5378 68.9753 41.5096ZM66.9866 41.0161C64.9047 41.1714 64.9047 41.1714 64.9047 41.1714V38.2806C64.9047 37.0852 64.9399 36.8808 66.9557 36.8808C68.4152 36.8808 69.9874 37.4077 69.9874 39.0277C69.9874 40.4342 68.4537 40.9062 66.9866 41.0161Z" fill="white"/>
</svg>
