<svg width="192" height="64" viewBox="0 0 192 64" fill="none" xmlns="http://www.w3.org/2000/svg">
<path d="M15.8122 36.3616V31.3695C15.8122 31.0079 15.8122 30.6199 15.9387 30.3278V30.2538H12.0506V30.3278C13.193 30.7645 13.2196 31.9529 13.2196 33.0713V36.4819C12.3396 36.8377 11.1453 37.0273 9.97524 37.0273C5.61086 37.0273 2.89878 34.6395 2.89878 30.1581C2.89878 26.4243 5.29682 23.6869 9.69615 23.6869C12.4828 23.6869 13.8949 24.4511 14.5071 24.9893H14.5817V22.5357C13.2592 22.2697 11.6538 22.0266 10.3064 22.0266C3.80111 22.0266 0 25.396 0 30.4981C0 35.3772 3.64563 38.7744 10.1533 38.7744C12.2144 38.7744 14.8538 38.2098 16.3649 37.7964V37.6982C15.9119 37.3753 15.8122 36.9029 15.8122 36.3616Z" fill="white"/>
<path d="M89.2106 36.3616V31.3695C89.2106 31.0079 89.2106 30.6199 89.337 30.3278V30.2538H85.449V30.3278C86.5913 30.7645 86.618 31.9529 86.618 33.0713V36.4819C85.738 36.8377 84.5438 37.0273 83.3736 37.0273C79.0092 37.0273 76.2971 34.6395 76.2971 30.1581C76.2971 26.4243 78.6953 23.6869 83.0945 23.6869C85.8812 23.6869 87.2932 24.4511 87.9055 24.9893H87.9801V22.5357C86.6576 22.2697 85.0523 22.0266 83.7047 22.0266C77.1994 22.0266 73.3984 25.396 73.3984 30.4981C73.3984 35.3772 77.044 38.7744 83.5517 38.7744C85.6128 38.7744 88.2522 38.2098 89.7634 37.7964V37.6982C89.3102 37.3753 89.2106 36.9029 89.2106 36.3616Z" fill="white"/>
<path d="M44.2569 37.0228C40.2785 37.0228 37.7458 34.4672 37.7458 30.1324C37.7458 25.5756 40.6606 23.7552 44.2052 23.7552C47.8644 23.7552 50.5871 26.0682 50.5871 30.7168C50.5871 34.9295 48.1794 37.0228 44.2569 37.0228ZM44.3832 22.003C39.071 21.8827 34.8477 25.416 34.8477 30.3535C34.8477 35.3686 38.7326 38.7744 44.1302 38.7744C49.5087 38.7744 53.4866 35.2887 53.4866 30.2311C53.4866 25.8612 49.7228 21.9772 44.3832 22.003Z" fill="white"/>
<path d="M72.807 38.2607C71.3376 37.5757 69.7214 36.2114 68.6871 34.9887L65.3624 30.821C67.5619 30.2328 68.9463 28.6533 68.9463 26.5178C68.9463 24.3107 66.9589 22.4142 63.554 22.4142H57.2148V22.4882C57.7816 22.8162 57.948 23.4531 57.948 24.5667V36.3814C57.948 37.471 57.8415 37.9235 57.2618 38.3143V38.3862H61.2262V38.3143C60.7049 37.9838 60.5416 37.3967 60.5416 36.2793V23.8459C60.5416 23.8459 61.4541 23.8353 62.4394 23.8401C64.8268 23.8531 66.3535 24.9414 66.3535 26.8092C66.3535 28.7979 65.2642 30.3088 62.2675 30.738L67.2649 37.1708C68.0294 38.0709 68.8675 38.3862 70.2161 38.3862H72.807V38.2607Z" fill="white"/>
<path d="M101.54 22.488C102.021 22.8102 102.21 23.1674 102.21 24.284V38.0772C102.21 40.4564 101.458 42.0619 100.043 42.9288V43C103.781 42.6117 104.804 39.341 104.804 36.7678V24.3647C104.804 23.2482 104.905 22.7601 105.335 22.488V22.414H101.54V22.488Z" fill="white"/>
<path d="M138.042 22.4872C138.464 22.7398 138.826 22.8858 138.826 24.2439V34.6059L130.137 23.5309C130.137 23.5309 129.502 22.7313 129.401 22.4379V22.4142H125.23V22.4872C125.732 22.71 126.172 23.0719 126.172 24.1835V35.5975C126.172 37.6308 126.101 37.9139 125.51 38.3137V38.3863H128.963V38.3137C128.371 37.9232 128.212 37.6716 128.212 35.5975V25.0809L137.679 37.0793C138.703 38.3994 139.319 38.8741 140.906 39.1641V24.4551C140.906 23.0957 140.959 22.8704 141.468 22.4872V22.4142H138.042V22.4872Z" fill="white"/>
<path d="M188.573 22.4142V22.4872C188.994 22.7398 189.357 22.8858 189.357 24.2439V34.6059L180.671 23.531C180.671 23.531 180.033 22.7313 179.932 22.4379V22.4142H175.762V22.4872C176.263 22.71 176.703 23.0719 176.703 24.1836V35.5975C176.703 37.6308 176.632 37.9139 176.042 38.3137V38.3863H179.493V38.3137C178.901 37.9232 178.743 37.6716 178.743 35.5975V25.0809L188.209 37.0793C189.234 38.3993 189.849 38.8741 191.437 39.1641V24.4551C191.437 23.0957 191.489 22.8704 191.999 22.4872V22.4142H188.573Z" fill="white"/>
<path d="M148.646 26.0643C148.541 24.4919 149.944 23.5948 151.726 23.5948C153.387 23.5948 154.459 24.2687 155.164 24.9848L155.249 24.9876L155.257 22.8397C154.271 22.403 153.316 22.0963 151.971 22.0268C148.688 21.8571 146.185 23.355 146.185 26.2744C146.185 31.419 154.348 31.0663 154.348 34.6182C154.348 36.1877 152.581 37.0573 150.701 37.0014C149.107 36.9541 147.334 36.3384 145.852 34.5213L145.758 34.5271L146.158 37.5339C147.187 38.2727 149.248 38.8926 151.04 38.8926C154.251 38.8926 156.966 37.3967 156.965 34.1611C156.964 29.5361 148.851 29.1338 148.646 26.0643Z" fill="white"/>
<path d="M116.996 36.5455L113.766 36.5382V30.6643H116.539C117.936 30.6643 118.456 30.9539 118.581 31.174H118.659V28.8202L113.766 28.8185V24.1897C113.766 24.1897 116.142 24.2031 117.031 24.2031C118.843 24.2031 119.683 24.4592 120.032 24.8458H120.109L119.807 22.4141H110.453V22.4875C111.063 22.8501 111.173 23.3077 111.173 24.4248V36.2998C111.173 37.3933 111.132 37.8643 110.552 38.3142V38.3862H120.63L121.544 35.5786H121.469C120.728 36.2021 119.737 36.5455 116.996 36.5455Z" fill="white"/>
<path d="M27.6016 36.5455L24.3717 36.5382V30.6643H27.1447C28.5418 30.6643 29.0617 30.9539 29.1867 31.174H29.2648V28.8202L24.3717 28.8185V24.1897C24.3717 24.1897 26.7472 24.2031 27.6368 24.2031C29.4482 24.2031 30.2886 24.4592 30.6371 24.8458H30.7142L30.413 22.4141H21.0586V22.4875C21.6682 22.8501 21.7784 23.3077 21.7784 24.4248V36.2998C21.7784 37.3933 21.738 37.8643 21.1576 38.3142V38.3862H31.2357L32.1501 35.5786H32.0748C31.3334 36.2021 30.342 36.5455 27.6016 36.5455Z" fill="white"/>
<path d="M167.656 36.5455L164.426 36.5382V30.6643H167.199C168.597 30.6643 169.116 30.9539 169.241 31.174H169.319V28.8202L164.426 28.8185V24.1897C164.426 24.1897 166.802 24.2031 167.691 24.2031C169.503 24.2031 170.343 24.4592 170.692 24.8458H170.769L170.468 22.4141H161.113V22.4875C161.723 22.8501 161.833 23.3077 161.833 24.4248V36.2998C161.833 37.3933 161.793 37.8643 161.212 38.3142V38.3862H171.291L172.205 35.5786H172.129C171.388 36.2021 170.397 36.5455 167.656 36.5455Z" fill="white"/>
</svg>
