<svg width="120" height="64" viewBox="0 0 120 64" fill="none" xmlns="http://www.w3.org/2000/svg">
<path d="M60.2672 4.52197C48.3124 4.52197 38.6211 14.132 38.6211 25.9865C38.6211 37.841 48.3124 47.451 60.2672 47.451C72.2222 47.451 81.9135 37.841 81.9135 25.9865C81.9135 14.132 72.2222 4.52197 60.2672 4.52197ZM67.0349 7.82624C68.8981 8.53052 70.6406 9.51545 72.2011 10.7462L71.6845 11.3866C70.2505 10.312 68.6669 9.44919 66.9833 8.82517L67.0349 7.82624ZM49.4442 42.1233C44.3605 38.7725 41.1494 33.2571 40.765 27.2159C41.0391 28.3349 41.4833 29.4058 42.0824 30.3921C43.1546 34.7311 45.7683 38.5415 49.4442 41.1244V42.1233ZM65.2267 30.8276V44.7359C63.6081 45.1591 61.9413 45.3743 60.2672 45.3764H60.0864V33.5171C58.9244 33.9625 57.7221 34.297 56.496 34.516V44.9921C54.6987 44.6467 52.9595 44.0516 51.3298 43.2247V34.516C45.252 33.302 41.1636 27.6242 41.9791 21.5298C42.3407 14.7676 49.5734 7.08346 59.5182 6.62242C61.4417 6.53347 63.3674 6.74078 65.2268 7.23714V12.7697C62.9642 10.735 59.9097 9.7973 56.8835 10.2083C45.0788 11.156 45.1821 20.377 45.1821 21.043C45.1821 21.7091 45.1821 28.1126 51.3815 29.342V19.0964L56.5477 17.4571V29.2139C57.7955 28.919 59.0015 28.4716 60.1381 27.882V16.3045L65.3043 14.6651V24.0655C65.9364 23.3665 66.5149 22.6216 67.035 21.8371V29.2652C66.4514 29.8473 65.8111 30.3707 65.1234 30.8276H65.2267ZM77.4447 31.8265C77.3262 34.9482 75.9489 37.8919 73.6217 39.9974L73.3893 40.228L73.2344 40.356C72.821 40.7403 72.3819 41.0732 71.9427 41.4062L71.4778 41.7391H71.3487L70.7029 42.149C69.9581 42.6276 69.1814 43.0556 68.3781 43.4297L67.629 43.7626L67.0349 43.9931V37.2311C69.3855 36.1809 72.2011 34.4392 71.891 31.8265C71.6328 27.5746 68.843 27.1136 68.6622 22.2726C68.5072 18.0718 72.5885 13.0002 73.5959 11.822C74.9189 13.0436 76.0663 14.4398 77.0055 15.9715C75.4571 17.6549 74.5445 19.8181 74.4224 22.0933C75.0942 26.9855 77.5481 27.4721 77.4447 31.8265ZM78.8655 31.0581C78.846 30.4276 78.7593 29.8008 78.6071 29.1883C78.7938 28.131 78.8887 27.0599 78.8913 25.9865C78.8946 23.2694 78.295 20.5846 77.1348 18.123L77.6772 17.3546C79.8966 21.7852 80.3218 26.89 78.8655 31.6216C78.8655 31.4423 78.8655 31.263 78.8655 31.0837" fill="white"/>
<path d="M6.7131 57.8221C6.58915 57.8236 6.47012 57.8702 6.37838 57.9529C5.82049 58.4448 5.09625 58.7105 4.34978 58.6971C2.93888 58.7416 1.75866 57.6436 1.71375 56.2445C1.71318 56.2272 1.71281 56.21 1.71261 56.1927C1.71659 54.8152 2.84605 53.7016 4.23529 53.7055C4.27347 53.7056 4.31165 53.7066 4.34978 53.7084C5.07008 53.6989 5.76933 53.9491 6.31753 54.4125C6.41725 54.4767 6.53333 54.5116 6.65224 54.5131C6.93425 54.5245 7.17346 54.3097 7.18985 54.0303C7.18429 53.8738 7.10554 53.7288 6.97681 53.638C6.22908 53.0568 5.29939 52.7543 4.34978 52.7831C2.38593 52.6878 0.715938 54.1892 0.619784 56.1366C0.618729 56.1587 0.617837 56.1807 0.617188 56.2028V56.2631C0.652768 58.1792 2.24807 59.7039 4.18036 59.6685C4.23014 59.6677 4.27984 59.6657 4.3295 59.6627C5.33449 59.6815 6.30941 59.3221 7.05795 58.6569C7.175 58.5651 7.23939 58.4224 7.23042 58.2747C7.21411 58.0049 6.98565 57.7961 6.7131 57.802" fill="white"/>
<path d="M12.8093 53.2459C12.7071 52.9989 12.4596 52.8421 12.1906 52.8536C11.9224 52.845 11.6765 53.0009 11.5719 53.2459L8.66084 58.8481C8.61569 58.9244 8.59122 59.0111 8.58984 59.0996C8.6008 59.3604 8.82293 59.5631 9.08599 59.5522C9.08631 59.5522 9.0866 59.5522 9.08684 59.5522C9.28812 59.5613 9.47706 59.4559 9.5737 59.2806L10.2837 57.8725H14.0366L14.7466 59.2203C14.8348 59.4205 15.0334 59.5505 15.2538 59.5522C15.5244 59.5579 15.7499 59.3477 15.7609 59.0794C15.7559 58.9947 15.7316 58.9122 15.6899 58.8381L12.8093 53.2459ZM13.5903 56.9572H10.6894L12.1196 54.1109L13.5903 56.9572Z" fill="white"/>
<path d="M20.8326 52.8838H18.1954C17.9135 52.8781 17.679 53.0973 17.668 53.3766V59.0593C17.748 59.337 18.0399 59.4979 18.32 59.4186C18.4952 59.369 18.6322 59.2331 18.6822 59.0593V57.0478H20.5486L22.5569 59.2806C22.6708 59.4272 22.847 59.5128 23.0336 59.5119C23.3136 59.5181 23.5497 59.3061 23.5712 59.0292C23.5666 58.895 23.5082 58.7683 23.4089 58.6771L21.7759 56.8466C22.7703 56.7332 23.5327 55.9174 23.5712 54.9256C23.5759 54.412 23.3579 53.9211 22.9727 53.5778C22.3702 53.0924 21.6079 52.8452 20.8326 52.8838ZM22.4656 54.8954C22.4656 55.6195 21.7961 56.0822 20.7615 56.0822H18.7329V53.7991H20.7615C21.8367 53.7991 22.4554 54.2115 22.4554 54.9256" fill="white"/>
<path d="M30.276 58.5865H26.7057V53.3262C26.6257 53.0485 26.3338 52.8877 26.0537 52.967C25.8785 53.0166 25.7415 53.1524 25.6914 53.3262V59.019C25.7024 59.2983 25.937 59.5175 26.2189 59.5118H30.3268C30.5816 59.5495 30.819 59.375 30.8569 59.1222C30.8948 58.8695 30.7189 58.6341 30.4639 58.5966C30.4184 58.5899 30.3722 58.5899 30.3267 58.5966" fill="white"/>
<path d="M40.6117 52.8432C40.3262 52.8319 40.0855 53.0521 40.0741 53.3352C40.0741 53.3355 40.0741 53.3358 40.0741 53.336V55.7197H36.2096V53.3259C36.1295 53.0482 35.8376 52.8874 35.5576 52.9667C35.3823 53.0163 35.2454 53.1521 35.1953 53.3259V59.0589C35.2753 59.3367 35.5672 59.4975 35.8473 59.4182C36.0225 59.3686 36.1595 59.2327 36.2096 59.0589V56.6451H40.1045V59.0589C40.1845 59.3367 40.4764 59.4975 40.7565 59.4182C40.9317 59.3686 41.0687 59.2327 41.1188 59.0589V53.3259C41.1078 53.0466 40.8732 52.8274 40.5914 52.8331" fill="white"/>
<path d="M47.3883 53.2455C47.2859 52.9986 47.0385 52.8417 46.7695 52.8533C46.4977 52.8404 46.2466 52.997 46.1407 53.2455L43.2093 58.8478C43.1681 58.9252 43.1472 59.0117 43.1485 59.0992C43.1595 59.36 43.3816 59.5627 43.6446 59.5518C43.6449 59.5518 43.6452 59.5518 43.6455 59.5518C43.8574 59.5732 44.0615 59.466 44.1628 59.2803L44.8728 57.8721H48.6358L49.3458 59.2702C49.4375 59.472 49.6399 59.6019 49.8632 59.6021C50.1374 59.6134 50.369 59.4021 50.3804 59.1302C50.3804 59.1299 50.3804 59.1297 50.3804 59.1294C50.3658 59.0216 50.32 58.9203 50.2486 58.8377L47.3883 53.2455ZM48.1693 56.9569H45.2887L46.7188 54.1105L48.1693 56.9569Z" fill="white"/>
<path d="M58.137 52.8432C57.8571 52.8319 57.621 53.0476 57.6096 53.3252C57.6096 53.3254 57.6095 53.3257 57.6095 53.326V57.7816L53.5016 53.1148C53.3814 52.9571 53.1938 52.8641 52.9945 52.8633H52.8829C52.6048 52.8574 52.3717 53.0707 52.3555 53.3461V59.0791C52.3608 59.3512 52.5877 59.5675 52.8621 59.5622C52.8656 59.5621 52.8692 59.562 52.8728 59.5618C53.1526 59.5731 53.3887 59.3574 53.4001 59.0799C53.4002 59.0796 53.4002 59.0794 53.4002 59.0791V54.4826L57.5994 59.2802C57.7232 59.435 57.9077 59.5301 58.1065 59.5417C58.3637 59.5584 58.5857 59.3652 58.6025 59.1102C58.6033 59.0998 58.6036 59.0895 58.6036 59.0791V53.326C58.5982 53.0538 58.3713 52.8375 58.0969 52.8429C58.0933 52.843 58.0898 52.843 58.0862 52.8432" fill="white"/>
<path d="M63.8569 55.7296C62.305 55.4279 62.021 55.1261 62.021 54.6132C62.021 54.0902 62.6093 53.708 63.4106 53.708C64.0484 53.699 64.6728 53.889 65.1958 54.2511C65.2871 54.3069 65.3929 54.3349 65.5001 54.3316C65.7743 54.3429 66.0059 54.1316 66.0173 53.8597C66.0173 53.8594 66.0173 53.8591 66.0174 53.8588C66.014 53.694 65.926 53.5424 65.7841 53.4565C65.0872 53.0004 64.2655 52.7686 63.4309 52.7927C62.0007 52.7927 60.956 53.5772 60.956 54.6534C60.956 55.8805 61.9703 56.323 63.4512 56.665C64.9321 57.007 65.2059 57.2584 65.2059 57.7512C65.2059 58.3145 64.6075 58.757 63.7454 58.757C62.9582 58.778 62.1891 58.5214 61.5747 58.0329C61.4801 57.9575 61.3613 57.9182 61.24 57.9223C60.9657 57.9111 60.7343 58.1225 60.723 58.3944C60.7229 58.3979 60.7228 58.4015 60.7227 58.405C60.7204 58.5556 60.7972 58.6966 60.9256 58.7772C61.7323 59.359 62.7073 59.666 63.7048 59.6522C65.2161 59.6522 66.2709 58.8576 66.2709 57.7211C66.2709 56.7153 65.5508 56.1219 63.8468 55.8" fill="white"/>
<path d="M73.2919 58.5966H69.3462V56.5851H72.7847C73.0477 56.5964 73.2703 56.3941 73.2817 56.1333C73.2817 56.133 73.2817 56.1327 73.2817 56.1325C73.2654 55.8737 73.0461 55.674 72.7847 55.6799H69.3462V53.789H73.2412C73.5041 53.8003 73.7267 53.5981 73.7381 53.3372C73.7382 53.3369 73.7382 53.3366 73.7382 53.3364C73.7272 53.0755 73.505 52.8729 73.242 52.8837C73.2417 52.8837 73.2414 52.8838 73.2412 52.8838H68.8087C68.5268 52.878 68.2922 53.0973 68.2812 53.3766V59.0191C68.2922 59.2984 68.5268 59.5176 68.8087 59.5119H73.2919C73.5439 59.5119 73.7483 59.3092 73.7483 59.0593C73.7483 58.8093 73.5439 58.6067 73.2919 58.6067" fill="white"/>
<path d="M81.6292 52.8437C81.3494 52.8324 81.1132 53.0481 81.1018 53.3256C81.1018 53.3259 81.1018 53.3262 81.1018 53.3265V57.7821L76.9939 53.1152C76.8736 52.9576 76.686 52.8646 76.4867 52.8638H76.3751C76.097 52.8579 75.864 53.0712 75.8477 53.3466V59.0796C75.8531 59.3517 76.0799 59.568 76.3543 59.5627C76.3579 59.5626 76.3614 59.5625 76.365 59.5623C76.6448 59.5736 76.881 59.3579 76.8924 59.0804C76.8924 59.0801 76.8924 59.0798 76.8924 59.0796V54.4831L81.0916 59.2807C81.2154 59.4355 81.3999 59.5306 81.5988 59.5422C81.8559 59.5589 82.078 59.3657 82.0948 59.1107C82.0955 59.1003 82.0958 59.0899 82.0958 59.0796V53.3265C82.0904 53.0543 81.8635 52.838 81.5891 52.8434C81.5856 52.8434 81.582 52.8435 81.5785 52.8437" fill="white"/>
<path d="M99.9468 55.73C98.3948 55.4282 98.1108 55.1265 98.1108 54.6135C98.1108 54.0905 98.6991 53.7083 99.5005 53.7083C100.134 53.6985 100.754 53.8849 101.275 54.2414C101.366 54.2983 101.472 54.3264 101.58 54.3219C101.854 54.3332 102.086 54.1219 102.097 53.85C102.097 53.8497 102.097 53.8494 102.097 53.8491C102.092 53.6848 102.004 53.5339 101.864 53.4468C101.167 52.9998 100.35 52.7751 99.5208 52.8031C98.0905 52.8031 97.0458 53.5876 97.0458 54.6638C97.0458 55.8909 98.0601 56.3334 99.541 56.6754C101.022 57.0174 101.286 57.2688 101.286 57.7616C101.286 58.3249 100.687 58.7674 99.825 58.7674C99.0379 58.7884 98.2688 58.5318 97.6544 58.0433C97.5625 57.9701 97.4477 57.931 97.3298 57.9326C97.0556 57.9215 96.8241 58.1329 96.8129 58.4048C96.8127 58.4083 96.8126 58.4119 96.8126 58.4154C96.8102 58.566 96.887 58.707 97.0154 58.7875C97.8224 59.3687 98.7973 59.6756 99.7946 59.6626C101.306 59.6626 102.361 58.868 102.361 57.7314C102.361 56.7257 101.63 56.1323 99.9366 55.8104" fill="white"/>
<path d="M111.296 53.4971C111.387 53.4185 111.439 53.3047 111.438 53.1853C111.433 52.9632 111.248 52.7871 111.023 52.792C111.016 52.7922 111.009 52.7925 111.002 52.7931C110.873 52.7939 110.749 52.8443 110.657 52.9339L110.12 53.4367C109.448 52.9923 108.655 52.7608 107.847 52.7729C105.873 52.6662 104.185 54.1668 104.077 56.1248C104.076 56.1474 104.075 56.17 104.074 56.1926V56.263C104.068 57.0709 104.364 57.8523 104.906 58.4556L104.389 58.9485C104.298 59.0271 104.246 59.1409 104.247 59.2603C104.252 59.4824 104.437 59.6585 104.661 59.6536C104.669 59.6534 104.676 59.653 104.683 59.6525C104.812 59.6507 104.935 59.6004 105.028 59.5117L105.565 59.0189C106.24 59.4557 107.031 59.6834 107.837 59.6726C109.812 59.7794 111.5 58.2788 111.607 56.3208C111.609 56.2982 111.61 56.2756 111.611 56.253C111.613 55.4471 111.313 54.6692 110.769 54.0704L111.296 53.4971ZM107.837 53.6882C108.396 53.684 108.944 53.845 109.41 54.1509L105.677 57.6912C105.344 57.2658 105.165 56.7413 105.17 56.2027C105.179 54.814 106.322 53.6958 107.722 53.705C107.761 53.7052 107.799 53.7063 107.837 53.7083V53.6882ZM107.837 58.7373C107.282 58.7401 106.738 58.579 106.275 58.2746L110.008 54.7242C110.338 55.1511 110.517 55.6746 110.515 56.2127V56.263C110.506 57.6517 109.363 58.7699 107.963 58.7607C107.924 58.7605 107.886 58.7593 107.847 58.7574" fill="white"/>
<path d="M119.443 52.8432C119.163 52.8319 118.927 53.0476 118.916 53.3252C118.916 53.3254 118.916 53.3257 118.916 53.326V57.7816L114.859 53.1047C114.738 52.947 114.551 52.8541 114.351 52.8533H114.149C113.87 52.8474 113.637 53.0606 113.621 53.336V59.069C113.626 59.3412 113.853 59.5575 114.128 59.5521C114.131 59.5521 114.135 59.5519 114.138 59.5518C114.418 59.5631 114.654 59.3473 114.666 59.0699C114.666 59.0696 114.666 59.0693 114.666 59.069V54.4826L118.916 59.2802C119.04 59.435 119.224 59.5301 119.423 59.5417C119.68 59.5584 119.902 59.3652 119.919 59.1102C119.92 59.0998 119.92 59.0895 119.92 59.0791V53.326C119.915 53.0538 119.688 52.8375 119.413 52.8429C119.41 52.843 119.406 52.843 119.403 52.8432" fill="white"/>
<path d="M92.8454 58.7773L92.2166 58.2241C92.3906 57.997 92.5434 57.7546 92.673 57.4999C92.7105 57.4355 92.7314 57.363 92.7339 57.2887C92.7288 57.0388 92.5204 56.8402 92.2684 56.8453C92.2612 56.8454 92.2541 56.8457 92.247 56.8462C92.0583 56.8453 91.8854 56.9506 91.8007 57.1177C91.7211 57.2817 91.6295 57.4397 91.5269 57.5904L89.4982 55.8102C88.7882 55.1866 88.4839 54.9553 88.4839 54.4222C88.4839 53.8891 88.8288 53.6276 89.4982 53.6276C89.82 53.631 90.1364 53.7104 90.4212 53.859C90.4843 53.8904 90.5536 53.9076 90.6241 53.9093C90.8481 53.9149 91.0343 53.7394 91.0399 53.5173C91.0399 53.5172 91.04 53.5171 91.04 53.517C91.0127 53.3967 90.9301 53.2962 90.8169 53.2454C90.4081 52.9829 89.9344 52.8367 89.4475 52.823C88.4719 52.728 87.6033 53.4352 87.5075 54.4026C87.5039 54.4392 87.5014 54.476 87.5001 54.5127C87.5084 55.0165 87.716 55.497 88.0782 55.8504C87.4279 56.2281 87.0125 56.9045 86.9727 57.6508C86.9727 58.5661 87.6319 59.6623 89.5084 59.6623C90.2441 59.6545 90.9569 59.407 91.537 58.9583L92.176 59.5215C92.2723 59.6099 92.4 59.6569 92.531 59.6523C92.7828 59.6634 92.9961 59.4701 93.0074 59.2204C93.0075 59.2168 93.0076 59.2133 93.0077 59.2098C93.0477 59.0463 92.9834 58.8751 92.8454 58.7773ZM90.8169 58.2744C90.3957 58.5785 89.8874 58.7407 89.3664 58.737C88.5245 58.737 87.9058 58.2744 87.9058 57.6307C87.9331 57.1228 88.2199 56.6638 88.6665 56.4137L90.8169 58.2744Z" fill="white"/>
</svg>
