<svg width="77" height="64" viewBox="0 0 77 64" fill="none" xmlns="http://www.w3.org/2000/svg">
<g clip-path="url(#clip0_480_15995)">
<path d="M0.0385349 12.3351H3.2369V28.947H0.0385349V12.3351ZM29.556 12.2964H32.9085V15.0844H29.556V12.2964ZM29.5945 16.6333H32.87V28.947H29.5945V16.6333ZM6.62794 34.0971C5.20216 34.0971 3.85345 34.7167 3.08276 35.9945H3.04423V34.4456H0V51.561H3.19837V45.4815H3.2369C4.00759 46.6819 5.31777 47.2628 6.74354 47.2628C10.1346 47.2628 11.8686 44.0488 11.8686 40.7574C11.8686 37.1562 10.3658 34.0971 6.62794 34.0971ZM5.89578 44.3973C3.89199 44.3973 3.08276 42.6161 3.08276 40.7187C3.08276 38.8213 3.77638 36.9626 5.85725 36.9626C7.89958 36.9626 8.55467 38.86 8.55467 40.7187C8.55467 42.6161 7.86104 44.3973 5.89578 44.3973ZM37.918 30.2249H41.1163V46.7594H37.918V30.2249ZM59.4202 34.0584C55.6824 34.0584 53.4474 36.8077 53.4474 40.6025C53.4474 44.6296 55.2585 47.2241 59.6515 47.2241C62.3103 47.2241 64.3527 45.7139 64.9307 43.1195H61.6553C61.3855 43.8939 60.846 44.5135 59.5359 44.5135C58.2257 44.5135 56.877 43.7003 56.7999 41.5318H65.1234C65.3931 37.4273 63.7361 34.0584 59.4202 34.0584ZM56.8384 39.4021C56.8384 38.2792 57.7247 36.8077 59.4202 36.8077C60.8075 36.8077 61.7709 37.9694 61.7709 39.4021H56.8384ZM72.7147 34.0584C71.3274 34.0584 69.786 34.6392 69.0924 36.1881H69.0153V34.4456H65.8941V46.7594H69.1695V40.2927C69.1695 37.7758 70.1329 36.769 71.7128 36.769C73.3312 36.769 73.7936 37.7758 73.7936 39.7893V46.7594H77.0691V39.1698C77.0691 36.1494 76.1828 34.0584 72.7147 34.0584ZM10.4043 29.4117C14.2578 29.4117 16.724 26.7786 16.724 22.7902C16.724 18.8018 14.2578 16.1686 10.4043 16.1686C6.58941 16.1686 4.12319 18.8018 4.12319 22.7902C4.12319 26.8173 6.58941 29.4117 10.4043 29.4117ZM10.4814 18.9567C12.7164 18.9567 13.3715 20.8928 13.3715 22.8289C13.3715 24.7263 12.7164 26.6624 10.4814 26.6624C8.28492 26.6624 7.5913 24.7263 7.5913 22.8289C7.5913 20.8928 8.24639 18.9567 10.4814 18.9567ZM28.5541 28.947V16.6333H25.3172V23.1C25.3172 25.6169 24.5465 26.6237 22.8124 26.6237C21.3096 26.6237 20.7316 25.6169 20.7316 23.6033V16.6333H17.4947V24.9199C17.4947 28.1726 19.6911 29.2956 21.8105 29.2956C23.4675 29.2956 24.585 28.6373 25.3943 27.2433H25.4713V28.947H28.5541ZM39.1896 26.8173C37.9565 26.8173 36.9932 26.4688 36.8005 24.9586H33.525C33.6792 28.2113 36.4151 29.2956 39.1896 29.2956C41.9641 29.2956 44.7001 28.4437 44.7001 24.9974C44.7001 22.7127 42.8119 21.8608 40.8851 21.3962C38.9969 20.9315 37.1473 20.8928 37.1473 19.7311C37.1473 19.0728 38.2263 18.6081 38.9584 18.6081C40.153 18.6081 41.0393 19.0728 41.2319 20.3507H44.3918C44.122 17.1754 41.6944 16.1299 39.074 16.1299C36.6463 16.1299 33.9104 17.2529 33.9104 20.2345C33.9104 22.403 35.2976 23.3323 37.6482 23.8744C40.0374 24.4165 41.3476 24.4165 41.3476 25.462C41.3476 26.6237 40.153 26.8173 39.1896 26.8173ZM18.7278 47.3402C22.5812 47.3402 25.0474 44.7071 25.0474 40.7187C25.0474 36.7303 22.5812 34.0971 18.7278 34.0971C14.9129 34.0971 12.4467 36.7303 12.4467 40.7187C12.4467 44.7458 14.9129 47.3402 18.7278 47.3402ZM18.8049 36.8852C21.0399 36.8852 21.6949 38.8213 21.6949 40.7574C21.6949 42.6548 21.0399 44.5909 18.8049 44.5909C16.6084 44.5909 15.9148 42.6548 15.9148 40.7574C15.9148 38.8213 16.5698 36.8852 18.8049 36.8852ZM36.8005 46.7594V34.4456H33.5636V40.9123C33.5636 43.4292 32.7929 44.436 31.0588 44.436C29.556 44.436 28.978 43.4293 28.978 41.4157V34.4456H25.7411V42.7322C25.7411 45.9849 27.9375 47.1079 30.0569 47.1079C31.7139 47.1079 32.8314 46.4496 33.6406 45.0556H33.7177V46.7594H36.8005ZM47.436 44.7071C46.2029 44.7071 45.2395 44.3586 45.0469 42.8484H41.7714C41.9256 46.1011 44.6615 47.1853 47.436 47.1853C50.2105 47.1853 52.9464 46.3334 52.9464 42.8871C52.9464 40.6025 51.0583 39.7506 49.1315 39.2859C47.2433 38.8213 45.3937 38.7826 45.3937 37.6209C45.3937 36.9626 46.4726 36.4979 47.2048 36.4979C48.3994 36.4979 49.2857 36.9626 49.4783 38.2404H52.6382C52.3684 35.0652 49.9408 34.0197 47.3204 34.0197C44.8927 34.0197 42.1568 35.1426 42.1568 38.1243C42.1568 40.2927 43.544 41.2221 45.8946 41.7642C48.2838 42.3063 49.5939 42.3063 49.5939 43.3518C49.5939 44.5135 48.3994 44.7071 47.436 44.7071Z" fill="white"/>
</g>
<defs>
<clipPath id="clip0_480_15995">
<rect width="77" height="64" fill="white"/>
</clipPath>
</defs>
</svg>
