<svg width="122" height="64" viewBox="0 0 122 64" fill="none" xmlns="http://www.w3.org/2000/svg">
<path d="M10.8125 17.4141C16.258 17.4141 20.5897 21.6911 20.5897 27.0681C20.5897 32.4454 16.258 36.7221 10.8125 36.7221C5.36639 36.7221 1.03516 32.4454 1.03516 27.0681C1.03516 21.6911 5.36639 17.4141 10.8125 17.4141ZM5.93432 23.0402V24.6385H15.6906V23.0402H5.93432ZM15.6906 31.0959V26.2581H5.93432V31.0954H7.55351V29.2682C7.55351 28.7494 7.67972 28.4587 7.86856 28.251C8.0789 28.0022 8.39442 27.8568 8.77304 27.8568C9.15166 27.8568 9.46671 28.0022 9.67706 28.251C9.86637 28.4587 9.99257 28.7494 9.99257 29.2682V31.0954H11.6328V29.2682C11.6328 28.7494 11.759 28.4587 11.9483 28.251C12.1587 28.0022 12.4742 27.8568 12.8523 27.8568C13.2305 27.8568 13.546 28.0022 13.7563 28.251C13.9457 28.4587 14.0719 28.7494 14.0719 29.2682V31.0954H15.6906V31.0959Z" fill="white"/>
<path d="M26.5427 23.4347C26.5427 25.1784 29.0659 25.5314 30.9581 26.611C32.1356 27.2751 33.1027 28.3551 33.1027 30.1819C33.1027 32.7974 30.9371 34.4382 28.5401 34.4382C26.1431 34.4382 24.4187 33.2959 23.7461 32.5694L24.6922 30.5968H24.7763C25.5752 31.3653 26.7947 32.0917 28.3718 32.0917C29.4025 32.0917 30.5164 31.4894 30.5164 30.306C30.5164 28.5416 27.9932 28.1885 26.101 27.109C24.9236 26.4448 23.9564 25.3653 23.9564 23.538C23.9564 20.922 26.1431 19.2817 28.5822 19.2817C30.874 19.2817 32.4301 20.424 33.1027 21.0467L32.1566 23.0188H32.0725C31.2526 22.2919 30.2224 21.6273 28.7925 21.6273C27.6571 21.6282 26.5427 22.2305 26.5427 23.4347ZM33.4813 25.8222H35.9625L37.4339 30.037H37.5181L39.5995 24.1616H41.2818L43.4685 30.0993H43.5526L45.6551 24.1616H48.0101L44.4146 34.1267H42.7744L40.4615 27.8571H40.3774L38.1486 34.1267H36.4663L33.4813 25.8222ZM49.0412 20.0091H51.5434V22.3967H49.0412V20.0091ZM49.0833 24.1611H51.5013V34.1262H49.0833V24.1611ZM57.1362 34.4382C55.7064 34.4382 54.3185 33.8982 53.3514 32.9853L54.0241 31.1991H54.1082C54.865 31.8633 55.8321 32.383 56.9465 32.383C57.7874 32.383 58.3343 32.0299 58.3343 31.4068C58.3343 30.763 57.6401 30.5137 56.7782 30.2437C55.3904 29.808 53.5613 29.1434 53.5613 27.0674C53.5613 25.1571 55.0753 23.8491 57.2409 23.8491C58.4184 23.8491 59.6169 24.264 60.6051 25.0325L59.9324 26.8385H59.8483C59.1331 26.2777 58.2081 25.9044 57.4302 25.9044C56.4842 25.9044 55.9373 26.2574 55.9373 26.88C55.9373 27.5239 56.6309 27.7731 57.4934 28.0431C58.8812 28.4788 60.7102 29.1434 60.7102 31.2194C60.7107 33.1302 59.1971 34.4382 57.1362 34.4382ZM65.7781 34.4382C64.3483 34.4382 62.9604 33.8982 61.9933 32.9853L62.666 31.1991H62.7501C63.5069 31.8633 64.474 32.383 65.5888 32.383C66.4297 32.383 66.9766 32.0299 66.9766 31.4068C66.9766 30.763 66.283 30.5137 65.4206 30.2437C64.0327 29.808 62.2037 29.1434 62.2037 27.0674C62.2037 25.1571 63.7177 23.8491 65.8833 23.8491C67.0608 23.8491 68.2593 24.264 69.2474 25.0325L68.5748 26.8385H68.4906C67.7755 26.2777 66.8504 25.9044 66.0722 25.9044C65.1261 25.9044 64.5796 26.2574 64.5796 26.88C64.5796 27.5239 65.2733 27.7731 66.1353 28.0431C67.5235 28.4788 69.3526 29.1434 69.3526 31.2194C69.3526 33.1302 67.8391 34.4382 65.7781 34.4382ZM80.4756 24.1611V38.4868H78.0576V33.3997C77.3639 34.0436 76.3543 34.4382 75.3872 34.4382C72.5279 34.4382 70.6983 32.2574 70.6983 29.2473C70.6983 26.424 72.6541 23.8496 75.6396 23.8496C76.5646 23.8496 77.4686 24.2027 78.1833 24.763H78.2679V24.1607H80.4756V24.1611ZM78.0576 26.7564C77.5528 26.2994 76.7539 26.0299 76.0182 26.0299C74.2943 26.0299 73.1795 27.3587 73.1795 29.227C73.1795 30.9088 74.1466 32.2579 75.8709 32.2579C76.6913 32.2579 77.4691 31.9468 78.0581 31.3242V26.7564H78.0576ZM84.9331 30.1196C84.9331 30.9919 85.0803 31.3653 85.3327 31.6768C85.6478 32.0507 86.1526 32.299 86.7205 32.299C87.288 32.299 87.7928 32.0502 88.1083 31.6768C88.3608 31.3653 88.5075 30.9919 88.5075 30.1196V24.1611H90.9256V29.8704C90.9256 31.4899 90.4843 32.5071 89.7275 33.234C88.9703 33.9813 87.898 34.4382 86.6154 34.4382C85.4379 34.4382 84.4077 34.002 83.6719 33.2751C82.9357 32.5487 82.515 31.5102 82.515 29.8704V24.1611H84.9331V30.1196ZM92.5868 29.2477C92.5868 26.0714 94.7739 23.85 97.8436 23.85C100.913 23.85 103.1 26.0714 103.1 29.0405C103.1 32.2168 100.913 34.4387 97.8436 34.4387C94.7739 34.4387 92.5868 32.2164 92.5868 29.2477ZM97.8436 26.0299C96.2244 26.0299 95.068 27.3794 95.068 29.1439C95.068 30.9084 96.2249 32.2579 97.8436 32.2579C99.4623 32.2579 100.619 30.9088 100.619 29.1439C100.619 27.379 99.4628 26.0299 97.8436 26.0299ZM111.3 32.1748V34.0224C110.648 34.2919 109.934 34.4377 109.134 34.4377C108.062 34.4377 107.263 34.1257 106.716 33.5857C106.127 33.0051 105.833 32.1536 105.833 30.6384V26.2367H103.521V24.1607H105.833V20.8394H108.251V24.1611H111.3V26.2371H108.251V30.9499C108.251 31.4691 108.357 31.7599 108.524 31.9464C108.819 32.2782 109.303 32.3622 109.828 32.3622C110.375 32.3622 111.027 32.2371 111.216 32.1748H111.3ZM117.23 34.4382C114.286 34.4382 112.078 32.383 112.078 29.2473C112.078 26.3825 113.844 23.8496 116.977 23.8496C119.648 23.8496 121.435 25.9464 121.435 28.8324V29.6211H114.602C114.665 31.1784 115.758 32.3414 117.356 32.3414C118.386 32.3414 119.333 31.9256 120.194 31.2199H120.278L121.183 32.8805C120.237 33.8774 118.828 34.4382 117.23 34.4382ZM119.017 27.7528C118.996 26.8187 118.26 25.884 117.02 25.884C115.8 25.884 114.981 26.694 114.728 27.7528H119.017Z" fill="white"/>
<path d="M23.7461 42.8179H26.5268V43.3777H25.4457V46.3777H24.8277V43.3777H23.7466V42.8179H23.7461Z" fill="white"/>
<path d="M29.465 44.8255H27.6883V46.3767H27.0703V42.8169H27.6883V44.2666H29.465V42.8169H30.0829V46.3767H29.465V44.8255Z" fill="white"/>
<path d="M30.9609 42.8179H33.0723V43.3666H31.5789V44.2671H32.9952V44.8006H31.5789V45.8285H33.0723V46.3773H30.9609V42.8179Z" fill="white"/>
<path d="M35.4704 43.759C35.4704 44.1864 36.0884 44.2727 36.5516 44.5371C36.84 44.6996 37.077 44.9645 37.077 45.4118C37.077 46.0528 36.5464 46.4539 35.9593 46.4539C35.3723 46.4539 34.9502 46.1747 34.7852 45.997L35.017 45.5138H35.0376C35.233 45.7021 35.5321 45.8798 35.9182 45.8798C36.1706 45.8798 36.4436 45.7321 36.4436 45.4427C36.4436 45.0098 35.8257 44.9244 35.362 44.6594C35.0736 44.497 34.8366 44.2321 34.8366 43.7848C34.8366 43.1438 35.3723 42.7427 35.9696 42.7427C36.531 42.7427 36.912 43.0219 37.077 43.1747L36.8451 43.6579H36.8246C36.6236 43.4802 36.3716 43.3173 36.021 43.3173C35.7434 43.3164 35.4704 43.4641 35.4704 43.759Z" fill="white"/>
<path d="M37.2969 42.8179H37.9302L38.8315 45.2589H38.852L39.6915 42.8179H40.1291L40.9943 45.2589H41.0148L41.9161 42.8179H42.5237L41.2107 46.3777H40.7727L39.9126 43.9113H39.8921L39.0474 46.3777H38.6099L37.2969 42.8179Z" fill="white"/>
<path d="M42.9766 42.8179H43.5945V46.3777H42.9766V42.8179Z" fill="white"/>
<path d="M44.9196 43.759C44.9196 44.1864 45.5376 44.2727 46.0008 44.5371C46.2892 44.6996 46.5262 44.9645 46.5262 45.4118C46.5262 46.0528 45.9957 46.4539 45.4086 46.4539C44.8215 46.4539 44.3994 46.1747 44.2344 45.997L44.4662 45.5138H44.4868C44.6822 45.7021 44.9813 45.8798 45.3674 45.8798C45.6198 45.8798 45.8928 45.7321 45.8928 45.4427C45.8928 45.0098 45.2749 44.9244 44.8112 44.6594C44.5228 44.497 44.2858 44.2321 44.2858 43.7848C44.2858 43.1438 44.8215 42.7427 45.4188 42.7427C45.9802 42.7427 46.3612 43.0219 46.5262 43.1747L46.2944 43.6579H46.2738C46.0728 43.4802 45.8208 43.3173 45.4703 43.3173C45.1926 43.3164 44.9196 43.4641 44.9196 43.759Z" fill="white"/>
<path d="M47.6501 43.759C47.6501 44.1864 48.268 44.2727 48.7313 44.5371C49.0197 44.6996 49.2567 44.9645 49.2567 45.4118C49.2567 46.0528 48.7261 46.4539 48.139 46.4539C47.5519 46.4539 47.1298 46.1747 46.9648 45.997L47.1967 45.5138H47.2173C47.4126 45.7021 47.7118 45.8798 48.0979 45.8798C48.3503 45.8798 48.6233 45.7321 48.6233 45.4427C48.6233 45.0098 48.0053 44.9244 47.5417 44.6594C47.2532 44.497 47.0163 44.2321 47.0163 43.7848C47.0163 43.1438 47.5519 42.7427 48.1493 42.7427C48.7107 42.7427 49.0917 43.0219 49.2567 43.1747L49.0248 43.6579H49.0042C48.8032 43.4802 48.5513 43.3173 48.2007 43.3173C47.9231 43.3164 47.6501 43.4641 47.6501 43.759Z" fill="white"/>
<path d="M51.1445 42.8179H51.7625V45.8179H53.2559V46.3777H51.1445V42.8179Z" fill="white"/>
<path d="M53.8047 42.8179H55.9161V43.3666H54.4226V44.2671H55.839V44.8006H54.4226V45.8285H55.9161V46.3773H53.8047V42.8179Z" fill="white"/>
<path d="M56.1719 46.3767L57.7887 42.8169H58.2267L59.8487 46.3767H59.1948L58.7778 45.461H57.2227L56.8052 46.3767H56.1719ZM57.9846 43.733L57.4643 44.9275H58.5305L58.0052 43.733H57.9846Z" fill="white"/>
<path d="M60.25 42.8179H61.4088C62.0164 42.8179 62.4801 43.0117 62.8045 43.3316C63.1289 43.6473 63.3145 44.0889 63.3145 44.5722C63.3145 45.0808 63.1186 45.5285 62.7942 45.8539C62.4698 46.1793 62.0164 46.3777 61.4088 46.3777H60.25V42.8179ZM60.8679 43.3773V45.8174H61.3419C61.8262 45.8174 62.1454 45.6748 62.3665 45.4417C62.5619 45.2336 62.6806 44.9488 62.6806 44.6234C62.6806 44.2726 62.5675 43.9773 62.3665 43.7589C62.145 43.5199 61.8257 43.3777 61.3419 43.3777H60.8679V43.3773Z" fill="white"/>
<path d="M63.9688 42.8179H66.0801V43.3666H64.5867V44.2671H66.003V44.8006H64.5867V45.8285H66.0801V46.3773H63.9688V42.8179Z" fill="white"/>
<path d="M68.2232 44.8874L69.6185 46.3777H68.8103L67.451 44.8874H67.4304V46.3777H66.8125V42.8179H67.9554C68.3625 42.8179 68.6406 42.9296 68.8309 43.1179C69.0216 43.3062 69.1296 43.5651 69.1296 43.8499C69.1296 44.4143 68.7383 44.8371 68.2237 44.8666V44.8874H68.2232ZM67.4304 43.3666V44.3788H67.8782C68.1564 44.3788 68.3003 44.3077 68.3934 44.196C68.4607 44.1148 68.4967 44.0174 68.4967 43.9011C68.4967 43.7631 68.4555 43.6468 68.3887 43.5549C68.2961 43.4377 68.1568 43.3666 67.8787 43.3666H67.4304Z" fill="white"/>
<path d="M71.1094 42.8179H71.7273V46.3777H71.1094V42.8179Z" fill="white"/>
<path d="M75.8717 46.3767H75.4594L73.2401 43.9052H73.2195V46.3767H72.6016V42.8169H73.0134L75.2332 45.2884H75.2538V42.8169H75.8717V46.3767Z" fill="white"/>
<path d="M79.5781 42.7417C80.6392 42.7417 81.4063 43.524 81.4063 44.5717C81.4063 45.6706 80.6387 46.4529 79.5781 46.4529C78.5175 46.4529 77.75 45.6706 77.75 44.6229C77.75 43.5245 78.5175 42.7417 79.5781 42.7417ZM79.5781 43.3108C78.8779 43.3108 78.3834 43.8452 78.3834 44.598C78.3834 45.3499 78.8779 45.8843 79.5781 45.8843C80.2784 45.8843 80.7729 45.3499 80.7729 44.598C80.7729 43.8452 80.2784 43.3108 79.5781 43.3108Z" fill="white"/>
<path d="M85.3366 46.3767H84.9243L82.7049 43.9052H82.6844V46.3767H82.0664V42.8169H82.4782L84.6981 45.2884H84.7186V42.8169H85.3366V46.3767Z" fill="white"/>
<path d="M86.2114 42.8179H86.8293V45.8179H88.3223V46.3777H86.2109V42.8179H86.2114Z" fill="white"/>
<path d="M88.8711 42.8179H89.489V46.3777H88.8711V42.8179Z" fill="white"/>
<path d="M93.6373 46.3767H93.2251L91.0057 43.9052H90.9851V46.3767H90.3672V42.8169H90.779L92.9988 45.2884H93.0194V42.8169H93.6373V46.3767Z" fill="white"/>
<path d="M94.5156 42.8179H96.627V43.3666H95.134V44.2671H96.5499V44.8006H95.134V45.8285H96.627V46.3773H94.5156V42.8179Z" fill="white"/>
<path d="M100.548 44.4854C100.826 44.6082 101.068 44.9377 101.068 45.3346C101.068 45.6194 100.944 45.8737 100.759 46.062C100.563 46.2605 100.296 46.3777 99.8936 46.3777H98.5703V42.8179H99.8062C100.187 42.8179 100.44 42.9249 100.62 43.1026C100.8 43.2813 100.914 43.53 100.914 43.794C100.914 44.0843 100.764 44.3386 100.548 44.4656V44.4854ZM99.1887 43.3666V44.2671H99.7193C99.9974 44.2671 100.141 44.1905 100.218 44.0686C100.26 44.0026 100.28 43.926 100.28 43.8453C100.28 43.7183 100.244 43.6163 100.182 43.5351C100.1 43.428 99.9768 43.3666 99.7193 43.3666H99.1887ZM99.1887 44.8006V45.8285H99.8118C100.095 45.8285 100.239 45.7519 100.332 45.6346C100.393 45.5534 100.435 45.4519 100.435 45.3397C100.435 45.2225 100.404 45.1214 100.352 45.0351C100.264 44.8874 100.105 44.8006 99.8118 44.8006H99.1887Z" fill="white"/>
<path d="M101.219 46.3767L102.836 42.8169H103.274L104.896 46.3767H104.242L103.825 45.461H102.27L101.853 46.3767H101.219ZM103.031 43.733L102.512 44.9275H103.577L103.052 43.733H103.031Z" fill="white"/>
<path d="M108.559 46.3767H108.147L105.928 43.9052H105.907V46.3767H105.289V42.8169H105.701L107.921 45.2884H107.941V42.8169H108.559V46.3767Z" fill="white"/>
<path d="M110.076 44.5773L111.528 42.8179H112.244L110.735 44.6488L112.295 46.3777H111.503L110.076 44.7859H110.055V46.3777H109.438V42.8179H110.055V44.5773H110.076Z" fill="white"/>
<path d="M112.695 42.8179H113.313V46.3777H112.695V42.8179Z" fill="white"/>
<path d="M117.458 46.3767H117.045L114.826 43.9052H114.805V46.3767H114.188V42.8169H114.599L116.819 45.2884H116.84V42.8169H117.458V46.3767Z" fill="white"/>
<path d="M120.82 45.6143V44.4955H121.413V45.8128C121.181 46.0975 120.702 46.4529 119.992 46.4529C118.864 46.4529 118.117 45.6706 118.117 44.6229C118.117 43.5194 118.905 42.7417 119.971 42.7417C120.677 42.7417 121.12 43.0615 121.362 43.3159L121.068 43.7682H121.048C120.8 43.5291 120.445 43.3103 119.992 43.3103C119.235 43.3103 118.751 43.8799 118.751 44.5975C118.751 45.3295 119.204 45.894 119.992 45.894C120.341 45.894 120.64 45.7722 120.82 45.6143Z" fill="white"/>
</svg>
