<svg width="114" height="64" viewBox="0 0 114 64" fill="none" xmlns="http://www.w3.org/2000/svg">
<path d="M107.228 30.7822C103.193 30.7822 100.615 33.1232 100.615 37.1112C100.615 40.9865 103.43 43.1187 107.228 43.1187C111.327 43.1187 113.051 41.5393 113.051 41.4208V36.1184H107.409V38.0533H110.937V40.3998C109.761 41.246 107.228 41.0993 107.228 41.0993C104.888 41.0993 102.729 40.1009 102.729 37.1112C102.729 34.4657 104.668 32.8073 107.228 32.8073C109.088 32.8073 110.417 33.3037 111.14 33.7437L112.011 31.8822C111.05 31.3294 109.422 30.7822 107.228 30.7822ZM0 30.9909V42.9608H7.57439C10.8302 42.9608 11.5651 41.1783 11.5651 39.2942C11.5651 38.3466 11.0563 37.1507 9.84105 36.6487C10.6494 36.0564 10.8981 35.3062 10.8981 34.3303C10.8981 31.916 9.598 30.9853 6.79434 30.9853L0 30.9909ZM94.8212 30.9909V39.1532L87.6934 31.2166L87.5012 31.0079H85.8393V42.9777H87.9534V34.6857L95.4147 42.9608H96.9409V31.0022L94.8212 30.9909ZM30.4615 31.0022V42.9608H40.5795V40.9414H32.5812V37.963H38.375V36.0338H32.5812V33.0216H40.5682V31.0022H30.4615ZM50.4997 31.0022V33.0216H54.9709V42.9721H57.0906V33.0216H61.5617V31.0022H50.4997ZM44.4685 31.0022V42.9608H46.5882V31.0022H44.4685ZM15.4653 31.0022V42.9777H17.5794V38.042H20.7222L23.8141 42.9664H26.3125L23.1019 38.042C24.8994 37.9009 26.4143 36.8179 26.4143 34.4995C26.4143 31.6284 24.1815 31.0022 22.1014 31.0022H15.4653ZM65.6202 31.0022V42.9777H74.9639V40.9583H67.7399V31.0022H65.6202ZM78.3949 31.0022V42.9777H80.5146V31.0022H78.3949ZM2.07448 32.8863H6.70955C7.99268 32.8863 8.81229 33.3939 8.81229 34.3867C8.81229 34.979 8.63707 36 7.18437 36H2.07448V32.8863ZM17.5794 32.9427H22.124C22.9267 32.9427 24.3059 33.1514 24.3059 34.6688C24.3059 35.9436 23.0567 36.1184 22.1127 36.1184H17.5794V32.9427ZM2.07448 37.884H7.28611C8.42792 37.884 9.40581 38.1322 9.40581 39.486C9.40581 40.8342 8.25269 41.0655 7.57439 41.0655H2.07448V37.884ZM49.1601 48.7934C47.7017 48.7934 46.5995 49.16 45.972 49.8539C45.5924 50.2873 45.3981 50.8519 45.4308 51.4267C45.4636 52.0014 45.7208 52.5405 46.1473 52.9281L46.3338 53.103L46.1303 53.2496C45.7861 53.4966 45.5141 53.8305 45.3422 54.2172C45.1704 54.6039 45.1048 55.0292 45.1524 55.4496C45.2542 56.6793 46.3621 57.9879 49.1487 57.9879H49.1544C51.9411 57.9879 53.049 56.6793 53.1564 55.4496C53.2028 55.0293 53.1367 54.6044 52.9649 54.2179C52.7932 53.8315 52.5218 53.4974 52.1785 53.2496L51.975 53.1086L52.1559 52.9394C52.5839 52.5506 52.8425 52.01 52.8763 51.4334C52.9101 50.8568 52.7164 50.2899 52.3368 49.8539C51.715 49.16 50.6128 48.7934 49.1544 48.7934H49.1601ZM58.4019 48.7934C56.9436 48.7934 55.847 49.16 55.2196 49.8539C55.0156 50.0786 54.8625 50.3446 54.7708 50.6337C54.6791 50.9228 54.6509 51.2282 54.6882 51.5292C54.7221 51.9015 54.8804 52.4486 55.3948 52.9338L55.5757 53.103L55.3778 53.2496C55.0337 53.4966 54.7617 53.8305 54.5898 54.2172C54.4179 54.6039 54.3524 55.0292 54.3999 55.4496C54.5017 56.6793 55.6096 57.9879 58.3906 57.9879H58.4019C61.183 57.9879 62.2909 56.6793 62.3983 55.4496C62.4459 55.0298 62.3809 54.605 62.2101 54.2185C62.0393 53.832 61.7687 53.4976 61.426 53.2496L61.2226 53.1086L61.4034 52.9394C61.8058 52.5722 62.0592 52.0704 62.1157 51.5292C62.1529 51.2282 62.1248 50.9228 62.0331 50.6337C61.9414 50.3446 61.7883 50.0786 61.5843 49.8539C60.9569 49.16 59.8546 48.7934 58.4019 48.7934ZM41.4783 49.0359V57.8356H43.1853V49.0359H41.4783ZM66.1685 49.0359L63.6418 54.5245L63.6305 56.0588H68.6443V57.83H70.1875V56.0588H71.1936V54.5245H70.1875V49.0359H66.1685ZM49.1544 50.3333C50.1323 50.3333 50.8784 50.5308 51.1893 50.8861C51.3193 51.0215 51.3589 51.1682 51.3419 51.3712C51.2854 51.8507 50.5958 52.3302 49.1544 52.3302C47.7187 52.3302 47.0234 51.8507 46.9725 51.3712C46.9499 51.1682 46.9951 51.0159 47.1138 50.8805C47.436 50.5308 48.1765 50.3333 49.1544 50.3333ZM58.4019 50.3333C59.3798 50.3333 60.1203 50.5308 60.4369 50.8861C60.5612 51.0215 60.6064 51.1682 60.5838 51.3712C60.5386 51.8507 59.8433 52.3302 58.4019 52.3302C56.9605 52.3302 56.2709 51.8507 56.2144 51.3712C56.1975 51.1682 56.2427 51.0159 56.3614 50.8805C56.6779 50.5308 57.4241 50.3333 58.3963 50.3333H58.4019ZM67.1521 50.5815H68.6443V54.5245H65.3376L67.1521 50.5815ZM49.1544 54.0224C49.5557 54.0224 50.9067 54.0676 51.4211 54.6204C51.5906 54.8009 51.6472 55.0152 51.6189 55.3198C51.5454 56.1547 50.2962 56.448 49.1487 56.448C48.0069 56.448 46.7577 56.1547 46.6842 55.3198C46.656 55.0152 46.7182 54.8009 46.8821 54.6204C47.2325 54.2424 48.0578 54.0224 49.1544 54.0224ZM58.4019 54.0224C58.8033 54.0224 60.1542 54.0676 60.663 54.6204C60.8325 54.8009 60.8891 55.0152 60.8664 55.3198C60.793 56.1547 59.5381 56.448 58.3906 56.448C57.2488 56.448 55.9996 56.1547 55.9318 55.3198C55.9035 55.0152 55.9657 54.8009 56.124 54.6204C56.4688 54.2481 57.3223 54.0224 58.4019 54.0224Z" fill="white"/>
<path d="M58.239 15.7326C57.6172 15.3491 58.2277 14.7737 58.8099 14.7737C59.7426 14.7737 60.5905 15.586 60.5905 15.586C60.5905 15.586 58.9738 16.1839 58.239 15.7326ZM49.5567 23.8385C47.3975 24.4139 47.974 19.6868 50.7155 15.9075C53.5079 12.0548 55.6954 10.8984 55.6954 10.8984C55.2262 16.5223 51.8573 23.2236 49.5567 23.8385ZM63.0098 8.56314C61.6362 7.9088 59.6917 8.23597 57.9225 8.88467L57.9112 8.87903C58.0468 6.44219 57.6738 5.73145 57.6738 5.73145L55.6502 6.29553C55.6502 6.29553 55.9158 7.70573 55.7858 9.89437C50.529 12.9291 46.9848 18.0059 46.0069 21.4186C44.9443 25.1415 47.9118 26.3994 50.4159 24.5718C56.5772 20.0535 57.832 9.77028 57.832 9.77028C59.6974 9.20619 61.1727 9.50516 62.0432 10.2554C64.2307 12.1338 61.3931 15.0219 61.3931 15.0219C61.3931 15.0219 60.6583 14.1645 59.2791 14.0404C57.0746 13.843 55.9441 16.4941 58.8834 16.7762C59.3695 16.8213 60.6696 16.6352 61.1557 16.3982C61.6475 17.3008 61.4949 21.4976 58.6573 22.7385C56.108 23.8554 55.164 22.2873 55.164 22.2873C55.0793 22.2873 53.7848 23.9908 53.864 24.1487C53.864 24.1487 55.2206 26.1625 58.1825 25.2995C60.517 24.6226 61.6418 22.5862 62.241 21.1253C63.2359 18.6997 62.518 16.5562 62.128 15.9921C66.0169 13.2845 65.446 9.60669 63.0154 8.56314" fill="white"/>
</svg>
