<svg width="56" height="64" viewBox="0 0 56 64" fill="none" xmlns="http://www.w3.org/2000/svg">
<path d="M16.8954 42.7798L16.7939 42.8786C15.1997 44.5109 13.3548 45.3733 11.4544 45.3733C7.48557 45.3733 4.60647 42.3813 4.60647 38.2544C4.60647 34.1338 7.48557 31.1371 11.4544 31.1371C13.3548 31.1371 15.1997 32.0042 16.7939 33.6429L16.8954 33.7401L19.4477 30.6381L19.3795 30.5553C17.2571 28.0351 14.7095 26.8093 11.5782 26.8093C8.43892 26.8093 5.56458 27.8725 3.49607 29.7869C1.24355 31.8624 0.0585938 34.789 0.0585938 38.2544C0.0585938 41.7198 1.24355 44.6528 3.49607 46.7282C5.56458 48.6537 8.43892 49.709 11.5782 49.709C14.7095 49.709 17.2571 48.4816 19.3795 45.9599L19.4477 45.8833L16.8954 42.7798Z" fill="white"/>
<path d="M22.0234 49.2861H26.5316V27.1675H22.0234V49.2861Z" fill="white"/>
<path d="M44.1965 44.477C42.9925 45.2135 41.8741 45.5849 40.8684 45.5849C39.4106 45.5849 38.7507 44.8102 38.7507 43.0886V31.3519H43.3462V27.1883H38.7507V20.3053L34.333 22.6836V27.1883H30.5195V31.3519H34.333V43.8362C34.333 47.2363 36.338 49.5635 39.3329 49.6241C41.3649 49.664 42.5896 49.0551 43.3319 48.6087L43.3795 48.5784L44.463 44.3128L44.1965 44.477Z" fill="white"/>
<path d="M47.9297 49.2861H52.4443V27.1675H47.9297V49.2861Z" fill="white"/>
<path d="M55.0732 23.29C50.9536 17.4272 44.1135 13.93 37.1545 13.93C30.1971 13.93 23.3555 17.4272 19.2438 23.29L19.0312 23.5913H24.2184L24.2755 23.5291C27.805 19.8661 32.4147 17.9309 37.1545 17.9309C41.8943 17.9309 46.5009 19.8661 50.0383 23.5291L50.0954 23.5913H55.2794L55.0732 23.29Z" fill="white"/>
</svg>
