<svg width="64" height="64" viewBox="0 0 64 64" fill="none" xmlns="http://www.w3.org/2000/svg">
<path d="M49.1728 27.2206C51.8382 27.2206 52.8492 24.8309 52.8492 22.4412C52.8492 20.1434 51.7463 17.7537 49.1728 17.7537C46.5992 17.7537 45.4963 20.1434 45.4963 22.4412C45.4963 24.8309 46.4154 27.2206 49.1728 27.2206Z" fill="white"/>
<path d="M23.4378 18.5809L21.5996 24.0037H25.368L23.4378 18.5809Z" fill="white"/>
<path fill-rule="evenodd" clip-rule="evenodd" d="M61.3968 36.4117V8.74628H1.74609V36.4117H61.3968ZM49.1726 15.7316C53.2673 15.7316 55.5604 18.4342 55.6057 22.3233C55.6071 22.3928 55.6079 22.4628 55.6079 22.5331C55.6079 26.4853 53.3101 29.3346 49.1741 29.3346C44.9924 29.3346 42.7888 26.6372 42.741 22.6654C42.7395 22.5911 42.7387 22.5163 42.7387 22.4411C42.7387 18.397 44.9446 15.7316 49.1726 15.7316ZM30.3307 16.0073H33.3637L36.0759 20.618L38.8784 16.0073H41.7277L37.8041 22.3033L40.4605 26.5767L42.0954 29.1507H38.9704L35.9373 24.0955L32.9042 29.0588L29.8711 29.0588L34.1909 22.2573L30.3307 16.0073ZM22.0586 16.0073H24.9998L29.0439 26.3014L27.2057 29.0588L26.1027 26.0257H20.7724L20.7649 26.0449L19.6689 29.0588L16.9121 29.0588L22.0265 16.0901L22.0586 16.0073ZM7.44531 19.6838C7.44531 19.7064 7.44546 19.7289 7.44577 19.7512C7.44501 19.7897 7.44462 19.8285 7.44462 19.8676C7.44462 22.3249 9.31835 23.0573 10.9341 23.6888C12.1454 24.1622 13.2117 24.5789 13.2347 25.6234C13.1914 26.7757 11.8423 27.2206 10.938 27.2206C10.1108 27.2206 9.28355 27.0368 8.54825 26.6691L7.72105 28.7831L7.75276 28.7921L7.72036 28.875C7.81745 28.8958 7.9114 28.916 8.00272 28.9358L8.01038 28.9374C9.12492 29.1781 9.84944 29.3345 11.1211 29.3345C13.7865 29.3345 16.0843 28.2316 16.0843 25.3823L16.0843 25.3758C16.0848 25.3475 16.085 25.3191 16.085 25.2905C16.085 22.7061 14.0981 21.951 12.452 21.3255C11.2971 20.8866 10.31 20.5115 10.2948 19.613C10.3296 18.2014 11.4117 17.8455 12.3159 17.8455C13.0512 17.8455 13.7865 18.0294 14.4299 18.2132L15.1652 16.283L15.1354 16.2712L15.1659 16.1912C14.2468 15.8235 13.1438 15.7316 12.0409 15.7316C9.74311 15.7316 7.44531 16.8346 7.44531 19.6838Z" fill="white"/>
<path fill-rule="evenodd" clip-rule="evenodd" d="M19.8534 50.75L23.1622 42.2941H25.0924L28.4012 50.75H26.471L25.7357 48.8198H22.335L21.5997 50.75H19.8534ZM23.9894 44.0404L22.7946 47.5331H25.1843L23.9894 44.0404Z" fill="white"/>
<path d="M54.1374 42.2941H52.0234L48.9903 45.9705V42.2941H47.3359V50.8419H48.9903V46.7977L52.0234 50.7499H54.3212L50.6448 46.2463L54.1374 42.2941Z" fill="white"/>
<path d="M36.0299 42.2941L39.2468 48.636V42.2941H40.9012V50.8419H38.7872L35.5703 44.4081V50.8419H33.9159V42.2941H36.0299Z" fill="white"/>
<path fill-rule="evenodd" clip-rule="evenodd" d="M12.7765 46.4301C13.7876 46.2463 14.431 45.511 14.431 44.4999C14.431 42.6617 12.7765 42.2941 11.6736 42.2941H8.73242V50.7499H11.6736C12.7765 50.7499 14.6148 50.3823 14.6148 48.2683C14.7067 47.2573 13.9714 46.522 12.7765 46.4301ZM10.4787 43.6727H11.1221C11.8574 43.6727 12.7765 43.7647 12.7765 44.7757C12.7765 45.6948 11.8574 45.7867 11.1221 45.7867H10.4787V43.6727ZM11.214 49.4632H10.3868V46.9816H11.214C12.0412 46.9816 12.9604 47.1654 12.9604 48.2683C12.9604 49.2794 12.0412 49.4632 11.214 49.4632Z" fill="white"/>
<path fill-rule="evenodd" clip-rule="evenodd" d="M63.0515 7V57H0V7H63.0515ZM62.7757 56.7243V7.27574H0.275735V56.7243H62.7757Z" fill="white"/>
</svg>
