<svg width="16" height="16" viewBox="0 0 16 16" fill="none" xmlns="http://www.w3.org/2000/svg">
<path d="M12.9506 3.05437C12.3018 2.39911 11.5299 1.8785 10.6792 1.52247C9.82856 1.16643 8.91594 0.981981 7.99379 0.979712C7.07164 0.977442 6.15813 1.1574 5.30574 1.50924C4.45335 1.86109 3.67887 2.37788 3.02681 3.02994C2.37475 3.682 1.85796 4.45648 1.50611 5.30887C1.15427 6.16126 0.974314 7.07477 0.976584 7.99692C0.978853 8.91907 1.1633 9.83168 1.51934 10.6823C1.87537 11.533 2.39598 12.3049 3.05124 12.9537C3.70008 13.609 4.472 14.1296 5.32265 14.4856C6.1733 14.8417 7.08591 15.0261 8.00806 15.0284C8.93021 15.0307 9.84372 14.8507 10.6961 14.4989C11.5485 14.147 12.323 13.6302 12.975 12.9782C13.6271 12.3261 14.1439 11.5516 14.4957 10.6992C14.8476 9.84685 15.0275 8.93334 15.0253 8.01119C15.023 7.08904 14.8386 6.17643 14.4825 5.32578C14.1265 4.47513 13.6059 3.70321 12.9506 3.05437ZM2.00093 8.00406C2.0007 7.47303 2.07111 6.94433 2.2103 6.43187C2.43968 6.92562 2.7728 7.35218 2.99936 7.85874C3.29218 8.50999 4.07843 8.32937 4.42561 8.89999C4.73374 9.40655 4.40468 10.0472 4.6353 10.5772C4.8028 10.9619 5.1978 11.0459 5.4703 11.3272C5.74874 11.6109 5.7428 11.9997 5.7853 12.3697C5.83326 12.8044 5.91105 13.2353 6.01811 13.6594C6.01811 13.6625 6.01811 13.6659 6.02061 13.6691C3.68218 12.8478 2.00093 10.6187 2.00093 8.00406ZM8.00093 14.0041C7.66585 14.0039 7.33136 13.9759 7.00093 13.9203C7.00436 13.8356 7.00593 13.7566 7.01436 13.7016C7.0903 13.2047 7.33905 12.7187 7.67468 12.3469C8.00624 11.98 8.46062 11.7319 8.74061 11.3156C9.01499 10.9094 9.09718 10.3625 8.98405 9.8878C8.81749 9.18656 7.86468 8.95249 7.35093 8.57218C7.05561 8.35343 6.7928 8.01531 6.40499 7.9878C6.22624 7.97531 6.07655 8.01374 5.89936 7.96812C5.73686 7.92593 5.60936 7.83843 5.43624 7.86124C5.1128 7.90374 4.90874 8.24937 4.56124 8.20249C4.23155 8.15843 3.89186 7.77249 3.81686 7.45843C3.72061 7.05468 4.03999 6.92374 4.38218 6.8878C4.52499 6.87281 4.6853 6.85655 4.82249 6.90905C5.00311 6.97593 5.08843 7.1528 5.25061 7.24218C5.55468 7.40905 5.61624 7.14249 5.56968 6.87249C5.49999 6.46812 5.41874 6.30343 5.77936 6.02499C6.02936 5.83312 6.24311 5.69437 6.20311 5.34968C6.17936 5.14718 6.06843 5.05562 6.17186 4.85406C6.2503 4.70062 6.46561 4.56218 6.60593 4.47062C6.96811 4.23437 8.15749 4.25187 7.67155 3.59062C7.52874 3.39656 7.2653 3.04968 7.0153 3.00218C6.7028 2.94312 6.56405 3.29187 6.34624 3.44562C6.12124 3.60468 5.68311 3.78531 5.4578 3.53937C5.15468 3.20843 5.65874 3.09999 5.7703 2.86874C5.82186 2.76093 5.7703 2.61124 5.68343 2.47031C5.79614 2.42281 5.91072 2.37874 6.02718 2.33812C6.10016 2.39202 6.18674 2.42449 6.27718 2.43187C6.48624 2.44562 6.68343 2.33249 6.86593 2.47499C7.06843 2.63124 7.21436 2.82874 7.48311 2.87749C7.74311 2.92468 8.01843 2.77312 8.0828 2.50687C8.12186 2.34499 8.0828 2.17406 8.0453 2.00687C9.21406 2.01359 10.3551 2.36361 11.3266 3.01343C11.2641 2.98968 11.1894 2.99249 11.0972 3.03531C10.9075 3.12343 10.6387 3.34781 10.6166 3.57031C10.5912 3.82281 10.9637 3.85843 11.1406 3.85843C11.4062 3.85843 11.6753 3.73968 11.5897 3.43281C11.5525 3.29968 11.5019 3.16124 11.4203 3.07749C11.6164 3.21354 11.8042 3.36109 11.9828 3.51937C11.98 3.52218 11.9772 3.52468 11.9744 3.52781C11.7944 3.71531 11.5853 3.86374 11.4622 4.09187C11.3753 4.25249 11.2775 4.32874 11.1016 4.37031C11.0047 4.39312 10.8941 4.40156 10.8128 4.46656C10.5866 4.64468 10.7153 5.07281 10.9297 5.20124C11.2006 5.36343 11.6025 5.28718 11.8069 5.05562C11.9666 4.87437 12.0606 4.55968 12.3478 4.55999C12.4742 4.55973 12.5957 4.60923 12.6859 4.69781C12.8047 4.82093 12.7812 4.93593 12.8066 5.08968C12.8512 5.3628 13.0922 5.21468 13.2387 5.07687C13.3456 5.267 13.442 5.46281 13.5275 5.66343C13.3662 5.89562 13.2381 6.14874 12.8503 5.87812C12.6181 5.71593 12.4753 5.48062 12.1837 5.40749C11.9291 5.34499 11.6681 5.40999 11.4166 5.45343C11.1306 5.50312 10.7916 5.52499 10.5747 5.74155C10.365 5.9503 10.2541 6.22968 10.0309 6.43937C9.59936 6.84562 9.41718 7.28906 9.69655 7.86343C9.9653 8.41562 10.5275 8.7153 11.1341 8.67593C11.73 8.63624 12.3491 8.29062 12.3319 9.15656C12.3256 9.46312 12.3897 9.67531 12.4837 9.95999C12.5709 10.2225 12.565 10.4769 12.585 10.7478C12.604 11.0651 12.6536 11.3798 12.7331 11.6875C12.173 12.4087 11.4554 12.9923 10.6353 13.3938C9.81514 13.7953 8.91408 14.004 8.00093 14.0041Z" fill="white"/>
</svg>
