<svg width="29" height="24" viewBox="0 0 29 24" fill="none" xmlns="http://www.w3.org/2000/svg">
<path d="M28.3934 4.8939C28.2296 4.26968 27.9065 3.69996 27.4565 3.24178C27.0065 2.7836 26.4454 2.45306 25.8293 2.28324C23.5685 1.66602 14.5 1.66602 14.5 1.66602C14.5 1.66602 5.43146 1.66602 3.16946 2.28324C2.5537 2.45335 1.9929 2.78402 1.54314 3.24217C1.09337 3.70032 0.770423 4.26989 0.606583 4.8939C0 7.19657 0 11.9999 0 11.9999C0 11.9999 0 16.8032 0.606583 19.1059C0.770416 19.7301 1.09351 20.2998 1.54351 20.758C1.99352 21.2162 2.55463 21.5468 3.17067 21.7166C5.43146 22.3338 14.5 22.3338 14.5 22.3338C14.5 22.3338 23.5685 22.3338 25.8305 21.7166C26.4466 21.5469 27.0078 21.2164 27.4578 20.7582C27.9078 20.3 28.2309 19.7302 28.3946 19.1059C29 16.8032 29 11.9999 29 11.9999C29 11.9999 29 7.19657 28.3934 4.8939ZM11.5335 16.3608V7.63902L19.1134 11.9999L11.5335 16.3608Z" fill="white"/>
</svg>
